<svg xmlns="http://www.w3.org/2000/svg" viewBox="0 0 775 120">
  <!-- NVIDIA eye mark (simplified geometric badge with inner cutout) -->
  <path fill-rule="evenodd" d="
    M 8 0 L 112 0 Q 120 0 120 8 L 120 50 Q 102 60 102 60 Q 102 60 120 70 L 120 112 Q 120 120 112 120 L 8 120 Q 0 120 0 112 L 0 8 Q 0 0 8 0 Z
    M 16 12 L 104 12 Q 108 12 108 16 L 108 51 Q 94 60 94 60 Q 94 60 108 69 L 108 104 Q 108 108 104 108 L 16 108 Q 12 108 12 104 L 12 16 Q 12 12 16 12 Z
  "/>
  <!-- NVIDIA wordmark (paths from original, shifted to start at x=145) -->
  <g transform="translate(-171.2,-33.8)">
    <path d="M578.2 34v118h33.3V34h-33.3zm-262-.2v118.1h33.6V60.2l26.2.1c8.6 0 14.6 2.1 18.7 6.5 5.3 5.6 7.4 14.7 7.4 31.2v53.9h32.6V86.7c0-46.6-29.7-52.9-58.7-52.9h-59.8zm315.7.2v118h54c28.8 0 38.2-4.8 48.3-15.5 7.2-7.5 11.8-24.1 11.8-42.2 0-16.6-3.9-31.4-10.8-40.6C723 37.2 705.2 34 678.6 34h-46.7zm33 25.6h14.3c20.8 0 34.2 9.3 34.2 33.5s-13.4 33.6-34.2 33.6h-14.3V59.6zM530.2 34l-27.8 93.5L475.8 34h-36l38 118h48l38.4-118h-34zm231.4 118h33.3V34h-33.3v118zM855 34l-46.5 117.9h32.8l7.4-20.9h55l7 20.8h35.7L899.5 34H855zm21.6 21.5l20.2 55.2h-41l20.8-55.2z"/>
  </g>
</svg>
