<svg xmlns="http://www.w3.org/2000/svg" viewBox="0 0 778 118.2">
  <!-- NVIDIA eye mark from SimpleIcons, scaled from 24x24 to 118.2x118.2 -->
  <g transform="scale(4.925)">
    <path d="M8.948 8.798v-1.43a6.7 6.7 0 0 1 .424-.018c3.922-.124 6.493 3.374 6.493 3.374s-2.774 3.851-5.75 3.851c-.398 0-.787-.062-1.158-.185v-4.346c1.528.185 1.837.857 2.747 2.385l2.04-1.714s-1.492-1.952-4-1.952a6.016 6.016 0 0 0-.796.035m0-4.735v2.138l.424-.027c5.45-.185 9.01 4.47 9.01 4.47s-4.08 4.964-8.33 4.964c-.37 0-.733-.035-1.095-.097v1.325c.3.035.61.062.91.062 3.957 0 6.82-2.023 9.593-4.408.459.371 2.34 1.263 2.73 1.652-2.633 2.208-8.772 3.984-12.253 3.984-.335 0-.653-.018-.971-.053v1.864H24V4.063zm0 10.326v1.131c-3.657-.654-4.673-4.46-4.673-4.46s1.758-1.944 4.673-2.262v1.237H8.94c-1.528-.186-2.73 1.245-2.73 1.245s.68 2.412 2.739 3.11M2.456 10.9s2.164-3.197 6.5-3.533V6.201C4.153 6.59 0 10.653 0 10.653s2.35 6.802 8.948 7.42v-1.237c-4.84-.6-6.492-5.936-6.492-5.936z"/>
  </g>
  <!-- NVIDIA wordmark, shifted to start at x=148 after the eye mark -->
  <g transform="translate(-168,-33.8)">
    <path d="M578.2 34v118h33.3V34h-33.3zm-262-.2v118.1h33.6V60.2l26.2.1c8.6 0 14.6 2.1 18.7 6.5 5.3 5.6 7.4 14.7 7.4 31.2v53.9h32.6V86.7c0-46.6-29.7-52.9-58.7-52.9h-59.8zm315.7.2v118h54c28.8 0 38.2-4.8 48.3-15.5 7.2-7.5 11.8-24.1 11.8-42.2 0-16.6-3.9-31.4-10.8-40.6C723 37.2 705.2 34 678.6 34h-46.7zm33 25.6h14.3c20.8 0 34.2 9.3 34.2 33.5s-13.4 33.6-34.2 33.6h-14.3V59.6zM530.2 34l-27.8 93.5L475.8 34h-36l38 118h48l38.4-118h-34zm231.4 118h33.3V34h-33.3v118zM855 34l-46.5 117.9h32.8l7.4-20.9h55l7 20.8h35.7L899.5 34H855zm21.6 21.5l20.2 55.2h-41l20.8-55.2z"/>
  </g>
</svg>
