<?xml version="1.0" encoding="UTF-8"?>
<svg version="1.1" xmlns="http://www.w3.org/2000/svg" width="217" height="150">
<path d="M0 0 C17.16 0 34.32 0 52 0 C52 1.98 52 3.96 52 6 C56.29 6 60.58 6 65 6 C65.33 6.99 65.66 7.98 66 9 C68.64 9 71.28 9 74 9 C74.33 10.32 74.66 11.64 75 13 C76.98 13 78.96 13 81 13 C81.33 13.66 81.66 14.32 82 15 C84.64 15 87.28 15 90 15 C90.33 16.32 90.66 17.64 91 19 C92.65 19 94.3 19 96 19 C96.33 19.66 96.66 20.32 97 21 C100.02934491 21.65772428 100.02934491 21.65772428 103 22 C103 23.32 103 24.64 103 26 C104.98 26 106.96 26 109 26 C109 26.99 109 27.98 109 29 C110.32 29 111.64 29 113 29 C113 29.99 113 30.98 113 32 C114.65 31.67 116.3 31.34 118 31 C118.33 32.32 118.66 33.64 119 35 C120.32 35.33 121.64 35.66 123 36 C123 36.66 123 37.32 123 38 C123.66 38 124.32 38 125 38 C125 51.2 125 64.4 125 78 C123.02 78 121.04 78 119 78 C119 78.99 119 79.98 119 81 C117.02 81 115.04 81 113 81 C112.67 82.32 112.34 83.64 112 85 C108.37 85 104.74 85 101 85 C100.67 85.99 100.34 86.98 100 88 C97.69 88 95.38 88 93 88 C93 88.66 93 89.32 93 90 C90.03 90 87.06 90 84 90 C84 91.32 84 92.64 84 94 C83.01 94 82.02 94 81 94 C81 94.99 81 95.98 81 97 C79.02 97 77.04 97 75 97 C75 97.99 75 98.98 75 100 C73.68 100 72.36 100 71 100 C71 101.32 71 102.64 71 104 C70.34 104 69.68 104 69 104 C68.67 104.66 68.34 105.32 68 106 C67.01 106 66.02 106 65 106 C65 108.31 65 110.62 65 113 C63.68 113 62.36 113 61 113 C61.66 113.66 62.32 114.32 63 115 C62 118 62 118 61 120 C60.34 120 59.68 120 59 120 C58.67 122.31 58.34 124.62 58 127 C57.67 127 57.34 127 57 127 C56.67 129.97 56.34 132.94 56 136 C54.68 136 53.36 136 52 136 C52 136.99 52 137.98 52 139 C51.01 139 50.02 139 49 139 C49 139.99 49 140.98 49 142 C35.8 142 22.6 142 9 142 C8.67 141.01 8.34 140.02 8 139 C-0.91 139 -9.82 139 -19 139 C-19.33 138.34 -19.66 137.68 -20 137 C-22.54941373 136.68758629 -25.00361513 136.48696579 -27.5625 136.375 C-28.62887695 136.31699219 -28.62887695 136.31699219 -29.71679688 136.2578125 C-31.47742425 136.16328217 -33.23867728 136.08054183 -35 136 C-35 134.68 -35 133.36 -35 132 C-38.63 132 -42.26 132 -46 132 C-46 131.34 -46 130.68 -46 130 C-46.95712891 129.92652344 -46.95712891 129.92652344 -47.93359375 129.8515625 C-48.75988281 129.77679688 -49.58617187 129.70203125 -50.4375 129.625 C-51.26121094 129.55539063 -52.08492187 129.48578125 -52.93359375 129.4140625 C-53.61550781 129.27742187 -54.29742187 129.14078125 -55 129 C-55.33 128.34 -55.66 127.68 -56 127 C-58.64 127 -61.28 127 -64 127 C-64.66 125.68 -65.32 124.36 -66 123 C-67.65 123 -69.3 123 -71 123 C-71 122.01 -71 121.02 -71 120 C-71.99 120 -72.98 120 -74 120 C-74 118.68 -74 117.36 -74 116 C-76.31 116 -78.62 116 -81 116 C-81 115.01 -81 114.02 -81 113 C-81.66 113 -82.32 113 -83 113 C-83 110.69 -83 108.38 -83 106 C-85.99354776 105.22389502 -88.95724864 104.60855027 -92 104 C-92 87.5 -92 71 -92 54 C-88.37 54 -84.74 54 -81 54 C-80.34 52.68 -79.68 51.36 -79 50 C-73.25 49.875 -73.25 49.875 -71 51 C-71 50.01 -71 49.02 -71 48 C-69.02 48 -67.04 48 -65 48 C-65 47.01 -65 46.02 -65 45 C-61.7 45 -58.4 45 -55 45 C-54.67 43.68 -54.34 42.36 -54 41 C-50.92382812 40.70703125 -50.92382812 40.70703125 -47.84765625 40.4140625 C-46.93306641 40.20910156 -46.93306641 40.20910156 -46 40 C-45.505 39.01 -45.505 39.01 -45 38 C-41.7 38 -38.4 38 -35 38 C-35 37.01 -35 36.02 -35 35 C-32.03 35 -29.06 35 -26 35 C-25.67 33.68 -25.34 32.36 -25 31 C-23 29 -23 29 -19.375 28.875 C-17.704375 28.936875 -17.704375 28.936875 -16 29 C-16 28.01 -16 27.02 -16 26 C-15.34 26 -14.68 26 -14 26 C-14 24.68 -14 23.36 -14 22 C-12.68 22 -11.36 22 -10 22 C-10 21.01 -10 20.02 -10 19 C-9.34 19 -8.68 19 -8 19 C-7.67 17.02 -7.34 15.04 -7 13 C-5.68 13 -4.36 13 -3 13 C-3.185625 12.21625 -3.37125 11.4325 -3.5625 10.625 C-4 8 -4 8 -3 6 C-2.01 6 -1.02 6 0 6 C0 4.02 0 2.04 0 0 Z " fill="#004B96" transform="translate(92,4)"/>
<path d="M0 0 C0.99 0 1.98 0 3 0 C3 0.99 3 1.98 3 3 C4.65 2.67 6.3 2.34 8 2 C8.33 3.32 8.66 4.64 9 6 C10.98 6.495 10.98 6.495 13 7 C13 7.66 13 8.32 13 9 C13.66 9 14.32 9 15 9 C15 22.2 15 35.4 15 49 C13.02 49 11.04 49 9 49 C9 49.99 9 50.98 9 52 C7.02 52 5.04 52 3 52 C2.67 53.32 2.34 54.64 2 56 C-1.63 56 -5.26 56 -9 56 C-9.33 56.99 -9.66 57.98 -10 59 C-12.31 59 -14.62 59 -17 59 C-17 59.66 -17 60.32 -17 61 C-19.97 61 -22.94 61 -26 61 C-26 62.32 -26 63.64 -26 65 C-26.99 65 -27.98 65 -29 65 C-29 65.99 -29 66.98 -29 68 C-30.98 68 -32.96 68 -35 68 C-35 68.99 -35 69.98 -35 71 C-36.32 71 -37.64 71 -39 71 C-39 72.32 -39 73.64 -39 75 C-40.32 75.33 -41.64 75.66 -43 76 C-43 75.01 -43 74.02 -43 73 C-42.01 73 -41.02 73 -40 73 C-40 72.01 -40 71.02 -40 70 C-39.01 70 -38.02 70 -37 70 C-36.67 68.68 -36.34 67.36 -36 66 C-34.35 66 -32.7 66 -31 66 C-30.67 65.01 -30.34 64.02 -30 63 C-29.34 63 -28.68 63 -28 63 C-28 62.01 -28 61.02 -28 60 C-24.7 60 -21.4 60 -18 60 C-18 59.01 -18 58.02 -18 57 C-15.69 57 -13.38 57 -11 57 C-11 56.01 -11 55.02 -11 54 C-7.04 54 -3.08 54 1 54 C1.33 52.68 1.66 51.36 2 50 C1.01 49.67 0.02 49.34 -1 49 C-1 49.66 -1 50.32 -1 51 C-5.29 51 -9.58 51 -14 51 C-14 52.32 -14 53.64 -14 55 C-15.98 55 -17.96 55 -20 55 C-20 55.99 -20 56.98 -20 58 C-23.3 58 -26.6 58 -30 58 C-30 58.99 -30 59.98 -30 61 C-30.99 61 -31.98 61 -33 61 C-33 61.99 -33 62.98 -33 64 C-33.969375 64.12375 -34.93875 64.2475 -35.9375 64.375 C-37.4534375 64.684375 -37.4534375 64.684375 -39 65 C-39.33 65.66 -39.66 66.32 -40 67 C-40.99 67 -41.98 67 -43 67 C-43 68.32 -43 69.64 -43 71 C-43.99 71 -44.98 71 -46 71 C-46 71.99 -46 72.98 -46 74 C-46.99 74 -47.98 74 -49 74 C-49 75.98 -49 77.96 -49 80 C-49.99 80 -50.98 80 -52 80 C-52 81.98 -52 83.96 -52 86 C-53.32 86 -54.64 86 -56 86 C-56 88.31 -56 90.62 -56 93 C-56.66 93 -57.32 93 -58 93 C-58 96.3 -58 99.6 -58 103 C-58.99 103 -59.98 103 -61 103 C-61 103.99 -61 104.98 -61 106 C-62.32 106 -63.64 106 -65 106 C-65 106.99 -65 107.98 -65 109 C-75.56 109 -86.12 109 -97 109 C-97 108.01 -97 107.02 -97 106 C-106.57 106 -116.14 106 -126 106 C-126 105.01 -126 104.02 -126 103 C-131.28 103 -136.56 103 -142 103 C-142 102.01 -142 101.02 -142 100 C-144.97 100 -147.94 100 -151 100 C-151 98.68 -151 97.36 -151 96 C-154.3 96 -157.6 96 -161 96 C-161 95.01 -161 94.02 -161 93 C-163.97 93 -166.94 93 -170 93 C-170 92.01 -170 91.02 -170 90 C-172.31 90 -174.62 90 -177 90 C-177 89.01 -177 88.02 -177 87 C-178.32 86.67 -179.64 86.34 -181 86 C-181 85.34 -181 84.68 -181 84 C-182.98 84 -184.96 84 -187 84 C-187 83.01 -187 82.02 -187 81 C-187.99 81 -188.98 81 -190 81 C-190 78.69 -190 76.38 -190 74 C-190.99 74 -191.98 74 -193 74 C-193 73.01 -193 72.02 -193 71 C-194.98 71 -196.96 71 -199 71 C-199 61.43 -199 51.86 -199 42 C-196.03 42 -193.06 42 -190 42 C-190 42.99 -190 43.98 -190 45 C-188.68 45 -187.36 45 -186 45 C-186 45.99 -186 46.98 -186 48 C-185.01 48 -184.02 48 -183 48 C-183 48.99 -183 49.98 -183 51 C-182.01 51 -181.02 51 -180 51 C-180 52.32 -180 53.64 -180 55 C-178.02 55 -176.04 55 -174 55 C-174 55.99 -174 56.98 -174 58 C-172.02 58 -170.04 58 -168 58 C-168 59.98 -168 61.96 -168 64 C-165.69 64 -163.38 64 -161 64 C-161 65.32 -161 66.64 -161 68 C-158.03 68 -155.06 68 -152 68 C-152 68.99 -152 69.98 -152 71 C-148.7 71 -145.4 71 -142 71 C-142 71.99 -142 72.98 -142 74 C-135.73 74 -129.46 74 -123 74 C-123 74.99 -123 75.98 -123 77 C-107.82 77 -92.64 77 -77 77 C-77 77.99 -77 78.98 -77 80 C-76.34 80 -75.68 80 -75 80 C-75 79.01 -75 78.02 -75 77 C-72.69 77 -70.38 77 -68 77 C-68 74.03 -68 71.06 -68 68 C-67.01 68 -66.02 68 -65 68 C-65 64.7 -65 61.4 -65 58 C-64.01 58 -63.02 58 -62 58 C-62 56.68 -62 55.36 -62 54 C-61.01 54 -60.02 54 -59 54 C-59 53.01 -59 52.02 -59 51 C-57.02 51 -55.04 51 -53 51 C-53 50.01 -53 49.02 -53 48 C-52.01 48 -51.02 48 -50 48 C-50 47.01 -50 46.02 -50 45 C-48.68 45 -47.36 45 -46 45 C-46 42.69 -46 40.38 -46 38 C-45.01 38 -44.02 38 -43 38 C-43 37.01 -43 36.02 -43 35 C-42.01 35 -41.02 35 -40 35 C-40 34.01 -40 33.02 -40 32 C-37.69 32 -35.38 32 -33 32 C-33 31.01 -33 30.02 -33 29 C-31.02 29 -29.04 29 -27 29 C-27 27.68 -27 26.36 -27 25 C-21.72 25 -16.44 25 -11 25 C-11 24.01 -11 23.02 -11 22 C-5.72 22 -0.44 22 5 22 C5 21.01 5 20.02 5 19 C7.31 19 9.62 19 12 19 C12 27.91 12 36.82 12 46 C10.02 46 8.04 46 6 46 C6 46.66 6 47.32 6 48 C6.66 47.67 7.32 47.34 8 47 C9.98 47 11.96 47 14 47 C13.67 35.45 13.34 23.9 13 12 C12.01 11.505 12.01 11.505 11 11 C11 9.68 11 8.36 11 7 C10.01 7 9.02 7 8 7 C8 6.01 8 5.02 8 4 C5.69 4 3.38 4 1 4 C0.67 2.68 0.34 1.36 0 0 Z " fill="#AB9B04" transform="translate(202,33)"/>
<path d="M0 0 C17.16 0 34.32 0 52 0 C52 1.98 52 3.96 52 6 C56.29 6 60.58 6 65 6 C65.33 6.99 65.66 7.98 66 9 C68.64 9 71.28 9 74 9 C74.33 10.32 74.66 11.64 75 13 C76.98 13 78.96 13 81 13 C81.33 13.66 81.66 14.32 82 15 C84.64 15 87.28 15 90 15 C90.33 16.32 90.66 17.64 91 19 C92.65 19 94.3 19 96 19 C96.33 19.66 96.66 20.32 97 21 C100.02934491 21.65772428 100.02934491 21.65772428 103 22 C103 23.32 103 24.64 103 26 C104.98 26 106.96 26 109 26 C110.4606285 28.64738916 111 29.89448334 111 33 C113.31 33 115.62 33 118 33 C118 33.99 118 34.98 118 36 C118.99 36 119.98 36 121 36 C121 37.32 121 38.64 121 40 C121.99 40.33 122.98 40.66 124 41 C124 52.55 124 64.1 124 76 C121.36 76.33 118.72 76.66 116 77 C116 76.34 116 75.68 116 75 C117.98 75 119.96 75 122 75 C122 66.09 122 57.18 122 48 C119.69 48 117.38 48 115 48 C115 48.99 115 49.98 115 51 C109.72 51 104.44 51 99 51 C99 51.99 99 52.98 99 54 C94.71 54 90.42 54 86 54 C86 53.01 86 52.02 86 51 C89.3 51 92.6 51 96 51 C96 50.01 96 49.02 96 48 C98.97 48 101.94 48 105 48 C105.33 47.01 105.66 46.02 106 45 C107.98 45 109.96 45 112 45 C112 44.01 112 43.02 112 42 C111.01 42 110.02 42 109 42 C109 41.01 109 40.02 109 39 C106.69 39 104.38 39 102 39 C102 38.01 102 37.02 102 36 C101.01 36 100.02 36 99 36 C99 35.01 99 34.02 99 33 C97.02 33 95.04 33 93 33 C93 31.68 93 30.36 93 29 C91.02 29 89.04 29 87 29 C87 28.01 87 27.02 87 26 C84.69 26 82.38 26 80 26 C80 25.01 80 24.02 80 23 C76.7 23 73.4 23 70 23 C70 22.01 70 21.02 70 20 C66.7 20 63.4 20 60 20 C60 19.01 60 18.02 60 17 C57.03 17 54.06 17 51 17 C51 16.01 51 15.02 51 14 C49.77023438 14.01740234 49.77023438 14.01740234 48.515625 14.03515625 C47.43796875 14.04417969 46.3603125 14.05320312 45.25 14.0625 C43.64898437 14.07990234 43.64898437 14.07990234 42.015625 14.09765625 C39.46631499 14.01510087 37.42066409 13.74617558 35 13 C35 12.01 35 11.02 35 10 C26.75 10 18.5 10 10 10 C10 7.69 10 5.38 10 3 C7.69 3 5.38 3 3 3 C3 6.3 3 9.6 3 13 C2.01 13 1.02 13 0 13 C0 14.98 0 16.96 0 19 C-0.99 19 -1.98 19 -3 19 C-3 21.31 -3 23.62 -3 26 C-3.99 26 -4.98 26 -6 26 C-6 26.99 -6 27.98 -6 29 C-8.31 29 -10.62 29 -13 29 C-13 30.32 -13 31.64 -13 33 C-14.65 33 -16.3 33 -18 33 C-18 33.99 -18 34.98 -18 36 C-19.32 36 -20.64 36 -22 36 C-22 36.99 -22 37.98 -22 39 C-23.98 39 -25.96 39 -28 39 C-28 40.98 -28 42.96 -28 45 C-30.31 45 -32.62 45 -35 45 C-35 46.32 -35 47.64 -35 49 C-37.97 49 -40.94 49 -44 49 C-44 49.99 -44 50.98 -44 52 C-47.3 52 -50.6 52 -54 52 C-54 52.99 -54 53.98 -54 55 C-60.27 55 -66.54 55 -73 55 C-73 55.99 -73 56.98 -73 58 C-76.3 58 -79.6 58 -83 58 C-83 58.99 -83 59.98 -83 61 C-85.31 61 -87.62 61 -90 61 C-90 63.31 -90 65.62 -90 68 C-87.69 68 -85.38 68 -83 68 C-83 68.99 -83 69.98 -83 71 C-84.98 71 -86.96 71 -89 71 C-89 80.57 -89 90.14 -89 100 C-87.02 100 -85.04 100 -83 100 C-83 100.99 -83 101.98 -83 103 C-82.01 103 -81.02 103 -80 103 C-80 105.31 -80 107.62 -80 110 C-79.01 110 -78.02 110 -77 110 C-77 110.99 -77 111.98 -77 113 C-75.02 113 -73.04 113 -71 113 C-70.505 113.99 -70.505 113.99 -70 115 C-68.515 115.495 -68.515 115.495 -67 116 C-67 116.99 -67 117.98 -67 119 C-64.69 119 -62.38 119 -60 119 C-60 119.99 -60 120.98 -60 122 C-57.03 122 -54.06 122 -51 122 C-51 122.99 -51 123.98 -51 125 C-47.7 125 -44.4 125 -41 125 C-41 126.32 -41 127.64 -41 129 C-38.03 129 -35.06 129 -32 129 C-32 129.99 -32 130.98 -32 132 C-26.72 132 -21.44 132 -16 132 C-16 132.99 -16 133.98 -16 135 C-6.43 135 3.14 135 13 135 C13 135.99 13 136.98 13 138 C23.56 138 34.12 138 45 138 C45 137.01 45 136.02 45 135 C46.32 135 47.64 135 49 135 C49 134.01 49 133.02 49 132 C49.99 132 50.98 132 52 132 C52 128.7 52 125.4 52 122 C52.66 122 53.32 122 54 122 C54 119.69 54 117.38 54 115 C55.32 115 56.64 115 58 115 C58 113.02 58 111.04 58 109 C58.99 109 59.98 109 61 109 C61 107.02 61 105.04 61 103 C61.99 103 62.98 103 64 103 C64 102.01 64 101.02 64 100 C64.99 100 65.98 100 67 100 C67 98.68 67 97.36 67 96 C67.99 96 68.98 96 70 96 C70.33 95.01 70.66 94.02 71 93 C72.98 93 74.96 93 77 93 C77 92.01 77 91.02 77 90 C77.99 90 78.98 90 80 90 C80 89.01 80 88.02 80 87 C83.3 87 86.6 87 90 87 C90 86.01 90 85.02 90 84 C91.98 84 93.96 84 96 84 C96 82.68 96 81.36 96 80 C100.29 80 104.58 80 109 80 C109 79.34 109 78.68 109 78 C110.98 78 112.96 78 115 78 C114.01 78.66 113.02 79.32 112 80 C111.67 80.99 111.34 81.98 111 83 C107.04 83 103.08 83 99 83 C99 83.99 99 84.98 99 86 C96.69 86 94.38 86 92 86 C92 86.99 92 87.98 92 89 C88.7 89 85.4 89 82 89 C82 89.99 82 90.98 82 92 C80.26179817 94.37859197 79.19807812 94.94932885 76.3125 95.6875 C75.549375 95.790625 74.78625 95.89375 74 96 C73.67 96.99 73.34 97.98 73 99 C72.01 99 71.02 99 70 99 C70 99.99 70 100.98 70 102 C69.01 102 68.02 102 67 102 C67.33 103.32 67.66 104.64 68 106 C67.01 106 66.02 106 65 106 C65 108.31 65 110.62 65 113 C63.68 113 62.36 113 61 113 C61.66 113.66 62.32 114.32 63 115 C62 118 62 118 61 120 C60.34 120 59.68 120 59 120 C58.67 122.31 58.34 124.62 58 127 C57.67 127 57.34 127 57 127 C56.67 129.97 56.34 132.94 56 136 C54.68 136 53.36 136 52 136 C52 136.99 52 137.98 52 139 C51.01 139 50.02 139 49 139 C49 139.99 49 140.98 49 142 C35.8 142 22.6 142 9 142 C8.67 141.01 8.34 140.02 8 139 C-0.91 139 -9.82 139 -19 139 C-19.33 138.34 -19.66 137.68 -20 137 C-22.54941373 136.68758629 -25.00361513 136.48696579 -27.5625 136.375 C-28.62887695 136.31699219 -28.62887695 136.31699219 -29.71679688 136.2578125 C-31.47742425 136.16328217 -33.23867728 136.08054183 -35 136 C-35 134.68 -35 133.36 -35 132 C-38.63 132 -42.26 132 -46 132 C-46 131.34 -46 130.68 -46 130 C-46.95712891 129.92652344 -46.95712891 129.92652344 -47.93359375 129.8515625 C-48.75988281 129.77679688 -49.58617187 129.70203125 -50.4375 129.625 C-51.26121094 129.55539063 -52.08492187 129.48578125 -52.93359375 129.4140625 C-53.61550781 129.27742187 -54.29742187 129.14078125 -55 129 C-55.33 128.34 -55.66 127.68 -56 127 C-58.64 127 -61.28 127 -64 127 C-64.66 125.68 -65.32 124.36 -66 123 C-67.65 123 -69.3 123 -71 123 C-71 122.01 -71 121.02 -71 120 C-71.99 120 -72.98 120 -74 120 C-74 118.68 -74 117.36 -74 116 C-76.31 116 -78.62 116 -81 116 C-81 115.01 -81 114.02 -81 113 C-81.66 113 -82.32 113 -83 113 C-83 110.69 -83 108.38 -83 106 C-85.99354776 105.22389502 -88.95724864 104.60855027 -92 104 C-92 87.5 -92 71 -92 54 C-88.37 54 -84.74 54 -81 54 C-80.34 52.68 -79.68 51.36 -79 50 C-73.25 49.875 -73.25 49.875 -71 51 C-71 50.01 -71 49.02 -71 48 C-69.02 48 -67.04 48 -65 48 C-65 47.01 -65 46.02 -65 45 C-61.7 45 -58.4 45 -55 45 C-54.67 43.68 -54.34 42.36 -54 41 C-50.92382812 40.70703125 -50.92382812 40.70703125 -47.84765625 40.4140625 C-46.93306641 40.20910156 -46.93306641 40.20910156 -46 40 C-45.505 39.01 -45.505 39.01 -45 38 C-41.7 38 -38.4 38 -35 38 C-35 37.01 -35 36.02 -35 35 C-32.03 35 -29.06 35 -26 35 C-25.67 33.68 -25.34 32.36 -25 31 C-23 29 -23 29 -19.375 28.875 C-17.704375 28.936875 -17.704375 28.936875 -16 29 C-16 28.01 -16 27.02 -16 26 C-15.34 26 -14.68 26 -14 26 C-14 24.68 -14 23.36 -14 22 C-12.68 22 -11.36 22 -10 22 C-10 21.01 -10 20.02 -10 19 C-9.34 19 -8.68 19 -8 19 C-7.67 17.02 -7.34 15.04 -7 13 C-5.68 13 -4.36 13 -3 13 C-3.185625 12.21625 -3.37125 11.4325 -3.5625 10.625 C-4 8 -4 8 -3 6 C-2.01 6 -1.02 6 0 6 C0 4.02 0 2.04 0 0 Z " fill="#2A271D" transform="translate(92,4)"/>
<path d="M0 0 C2.97 0 5.94 0 9 0 C9 0.99 9 1.98 9 3 C10.32 3 11.64 3 13 3 C13 3.99 13 4.98 13 6 C13.99 6 14.98 6 16 6 C16 6.99 16 7.98 16 9 C16.99 9 17.98 9 19 9 C19 10.32 19 11.64 19 13 C20.98 13 22.96 13 25 13 C25 13.99 25 14.98 25 16 C26.98 16 28.96 16 31 16 C31 17.98 31 19.96 31 22 C33.31 22 35.62 22 38 22 C38 23.32 38 24.64 38 26 C40.97 26 43.94 26 47 26 C47 26.99 47 27.98 47 29 C50.3 29 53.6 29 57 29 C57 29.99 57 30.98 57 32 C63.27 32 69.54 32 76 32 C76 32.99 76 33.98 76 35 C91.18 35 106.36 35 122 35 C122 35.99 122 36.98 122 38 C122.66 38 123.32 38 124 38 C124 37.01 124 36.02 124 35 C126.31 35 128.62 35 131 35 C131 32.03 131 29.06 131 26 C131.99 26 132.98 26 134 26 C134 22.7 134 19.4 134 16 C134.99 16 135.98 16 137 16 C137 14.68 137 13.36 137 12 C138.32 12 139.64 12 141 12 C141 11.34 141 10.68 141 10 C142.65 10 144.3 10 146 10 C146 11.98 146 13.96 146 16 C145.01 16 144.02 16 143 16 C143 24.25 143 32.5 143 41 C141.02 41 139.04 41 137 41 C137 41.99 137 42.98 137 44 C136.01 44 135.02 44 134 44 C134 46.31 134 48.62 134 51 C134.99 51 135.98 51 137 51 C137 52.32 137 53.64 137 55 C134.03 55 131.06 55 128 55 C128 56.98 128 58.96 128 61 C119.42 61 110.84 61 102 61 C101.67 60.01 101.34 59.02 101 58 C99.35 58 97.7 58 96 58 C96 58.99 96 59.98 96 61 C94.0625 60.6875 94.0625 60.6875 92 60 C91.67 59.01 91.34 58.02 91 57 C90.67 57.33 90.34 57.66 90 58 C88.31391034 58.07205511 86.62499341 58.08386068 84.9375 58.0625 C84.01839844 58.05347656 83.09929687 58.04445312 82.15234375 58.03515625 C81.44207031 58.02355469 80.73179688 58.01195312 80 58 C79.67 57.01 79.34 56.02 79 55 C78.34 55 77.68 55 77 55 C77 55.99 77 56.98 77 58 C74.69 58 72.38 58 70 58 C70 55.69 70 53.38 70 51 C68.02 51 66.04 51 64 51 C64 51.99 64 52.98 64 54 C61.69 54 59.38 54 57 54 C57 53.01 57 52.02 57 51 C54.03 51 51.06 51 48 51 C48 50.01 48 49.02 48 48 C44.7 48 41.4 48 38 48 C38 47.01 38 46.02 38 45 C36.02 45 34.04 45 32 45 C32 44.01 32 43.02 32 42 C33.98 42 35.96 42 38 42 C38 40.68 38 39.36 38 38 C36.02 38 34.04 38 32 38 C32 38.99 32 39.98 32 41 C30.02 41 28.04 41 26 41 C26 40.01 26 39.02 26 38 C25.01 38 24.02 38 23 38 C23 37.01 23 36.02 23 35 C23.66 35 24.32 35 25 35 C25 34.01 25 33.02 25 32 C24.01 32 23.02 32 22 32 C22 31.01 22 30.02 22 29 C19.03 29 16.06 29 13 29 C12.67 27.68 12.34 26.36 12 25 C11.01 25 10.02 25 9 25 C9 21.04 9 17.08 9 13 C8.01 12.67 7.02 12.34 6 12 C6 9.03 6 6.06 6 3 C4.02 3 2.04 3 0 3 C0 2.01 0 1.02 0 0 Z " fill="#F9F603" transform="translate(3,75)"/>
<path d="M0 0 C16.17 0 32.34 0 49 0 C49.495 2.475 49.495 2.475 50 5 C54.29 5.33 58.58 5.66 63 6 C63 6.99 63 7.98 63 9 C66.63 9 70.26 9 74 9 C74 9.66 74 10.32 74 11 C75.98 11 77.96 11 80 11 C80.495 11.99 80.495 11.99 81 13 C83.64 13 86.28 13 89 13 C89.495 14.98 89.495 14.98 90 17 C91.65 17 93.3 17 95 17 C95.495 17.99 95.495 17.99 96 19 C99.02934491 19.65772428 99.02934491 19.65772428 102 20 C102 21.32 102 22.64 102 24 C103.98 24 105.96 24 108 24 C109.4606285 26.64738916 110 27.89448334 110 31 C112.31 31 114.62 31 117 31 C117 31.99 117 32.98 117 34 C117.99 34 118.98 34 120 34 C120 35.32 120 36.64 120 38 C121.485 38.495 121.485 38.495 123 39 C123 50.55 123 62.1 123 74 C120.36 74.33 117.72 74.66 115 75 C115 74.34 115 73.68 115 73 C116.98 73 118.96 73 121 73 C121 64.09 121 55.18 121 46 C118.69 46 116.38 46 114 46 C114 46.99 114 47.98 114 49 C108.72 49 103.44 49 98 49 C98 49.99 98 50.98 98 52 C93.71 52 89.42 52 85 52 C85 51.01 85 50.02 85 49 C88.3 49 91.6 49 95 49 C95 48.01 95 47.02 95 46 C97.97 46 100.94 46 104 46 C104.33 45.01 104.66 44.02 105 43 C106.98 43 108.96 43 111 43 C111 42.01 111 41.02 111 40 C110.01 40 109.02 40 108 40 C108 39.01 108 38.02 108 37 C105.69 37 103.38 37 101 37 C101 36.01 101 35.02 101 34 C100.01 34 99.02 34 98 34 C98 33.01 98 32.02 98 31 C96.02 31 94.04 31 92 31 C92 29.68 92 28.36 92 27 C90.02 27 88.04 27 86 27 C86 26.01 86 25.02 86 24 C83.69 24 81.38 24 79 24 C79 23.01 79 22.02 79 21 C75.7 21 72.4 21 69 21 C69 20.01 69 19.02 69 18 C65.7 18 62.4 18 59 18 C59 17.01 59 16.02 59 15 C56.03 15 53.06 15 50 15 C50 14.01 50 13.02 50 12 C48.77023438 12.01740234 48.77023438 12.01740234 47.515625 12.03515625 C46.43796875 12.04417969 45.3603125 12.05320312 44.25 12.0625 C42.64898437 12.07990234 42.64898437 12.07990234 41.015625 12.09765625 C38.46631499 12.01510087 36.42066409 11.74617558 34 11 C34 10.01 34 9.02 34 8 C25.75 8 17.5 8 9 8 C9 5.69 9 3.38 9 1 C6.69 1 4.38 1 2 1 C2 4.3 2 7.6 2 11 C1.01 11 0.02 11 -1 11 C-1 12.98 -1 14.96 -1 17 C-2.65 17.33 -4.3 17.66 -6 18 C-6 16.35 -6 14.7 -6 13 C-5.01 12.67 -4.02 12.34 -3 12 C-3 10.02 -3 8.04 -3 6 C-2.01 6 -1.02 6 0 6 C0 4.02 0 2.04 0 0 Z " fill="#06070C" transform="translate(93,6)"/>
<path d="M0 0 C3.96 0 7.92 0 12 0 C12 0.99 12 1.98 12 3 C14.97 3 17.94 3 21 3 C21 3.99 21 4.98 21 6 C24.3 6 27.6 6 31 6 C31 6.99 31 7.98 31 9 C34.3 9 37.6 9 41 9 C41 9.99 41 10.98 41 12 C43.31 12 45.62 12 48 12 C48 12.99 48 13.98 48 15 C49.98 15 51.96 15 54 15 C54 16.32 54 17.64 54 19 C55.98 19 57.96 19 60 19 C60 19.99 60 20.98 60 22 C60.99 22 61.98 22 63 22 C63 22.99 63 23.98 63 25 C65.31 25 67.62 25 70 25 C70 25.99 70 26.98 70 28 C70.99 28 71.98 28 73 28 C73 28.99 73 29.98 73 31 C72.030625 31.12375 71.06125 31.2475 70.0625 31.375 C69.051875 31.58125 68.04125 31.7875 67 32 C66.505 32.99 66.505 32.99 66 34 C63.03 34 60.06 34 57 34 C57 34.99 57 35.98 57 37 C53.7 37 50.4 37 47 37 C47 37.99 47 38.98 47 40 C46.01 40 45.02 40 44 40 C44 41.32 44 42.64 44 44 C42.02 44 40.04 44 38 44 C38 44.99 38 45.98 38 47 C35.69 47 33.38 47 31 47 C31 47.99 31 48.98 31 50 C30.01 50 29.02 50 28 50 C28 50.99 28 51.98 28 53 C27.01 53 26.02 53 25 53 C25 55.31 25 57.62 25 60 C23.68 60 22.36 60 21 60 C21 60.99 21 61.98 21 63 C20.01 63 19.02 63 18 63 C18 63.99 18 64.98 18 66 C16.02 66 14.04 66 12 66 C12 66.99 12 67.98 12 69 C11.01 69 10.02 69 9 69 C9 70.32 9 71.64 9 73 C8.01 73 7.02 73 6 73 C6 71.68 6 70.36 6 69 C5.01 69 4.02 69 3 69 C3 68.01 3 67.02 3 66 C3.99 66 4.98 66 6 66 C6 63.03 6 60.06 6 57 C6.99 57 7.98 57 9 57 C9 55.68 9 54.36 9 53 C9.99 53 10.98 53 12 53 C12 52.01 12 51.02 12 50 C12.99 50 13.98 50 15 50 C15 49.01 15 48.02 15 47 C16.32 47 17.64 47 19 47 C19 46.01 19 45.02 19 44 C19.99 44 20.98 44 22 44 C22 43.01 22 42.02 22 41 C24.31 41 26.62 41 29 41 C29 39.02 29 37.04 29 35 C29.99 35 30.98 35 32 35 C32 34.01 32 33.02 32 32 C32.99 32 33.98 32 35 32 C35 27.38 35 22.76 35 18 C34.01 18 33.02 18 32 18 C32 17.01 32 16.02 32 15 C30.68 15 29.36 15 28 15 C28 14.01 28 13.02 28 12 C27.01 12 26.02 12 25 12 C25 11.01 25 10.02 25 9 C23.02 9 21.04 9 19 9 C19 8.01 19 7.02 19 6 C15.7 6 12.4 6 9 6 C9 5.01 9 4.02 9 3 C6.03 3 3.06 3 0 3 C0 2.01 0 1.02 0 0 Z " fill="#011273" transform="translate(131,18)"/>
<path d="M0 0 C0.99 0 1.98 0 3 0 C3 0.99 3 1.98 3 3 C4.65 2.67 6.3 2.34 8 2 C8.495 3.98 8.495 3.98 9 6 C10.32 6.33 11.64 6.66 13 7 C13 7.66 13 8.32 13 9 C13.66 9 14.32 9 15 9 C15 22.2 15 35.4 15 49 C13.02 49 11.04 49 9 49 C9 49.99 9 50.98 9 52 C7.02 52 5.04 52 3 52 C2.67 53.32 2.34 54.64 2 56 C-1.63 56 -5.26 56 -9 56 C-9.33 56.99 -9.66 57.98 -10 59 C-12.31 59 -14.62 59 -17 59 C-17 59.66 -17 60.32 -17 61 C-19.97 61 -22.94 61 -26 61 C-26 62.32 -26 63.64 -26 65 C-26.99 65 -27.98 65 -29 65 C-29 65.99 -29 66.98 -29 68 C-30.98 68 -32.96 68 -35 68 C-35 68.99 -35 69.98 -35 71 C-36.32 71 -37.64 71 -39 71 C-39 72.32 -39 73.64 -39 75 C-40.98 75.495 -40.98 75.495 -43 76 C-43 75.01 -43 74.02 -43 73 C-42.01 73 -41.02 73 -40 73 C-40 72.01 -40 71.02 -40 70 C-39.01 70 -38.02 70 -37 70 C-36.67 68.68 -36.34 67.36 -36 66 C-34.35 66 -32.7 66 -31 66 C-30.67 65.01 -30.34 64.02 -30 63 C-29.34 63 -28.68 63 -28 63 C-28 62.01 -28 61.02 -28 60 C-24.7 60 -21.4 60 -18 60 C-18 59.01 -18 58.02 -18 57 C-15.69 57 -13.38 57 -11 57 C-11 56.01 -11 55.02 -11 54 C-7.04 54 -3.08 54 1 54 C1.33 52.68 1.66 51.36 2 50 C1.01 49.67 0.02 49.34 -1 49 C-1 49.66 -1 50.32 -1 51 C-5.29 51 -9.58 51 -14 51 C-14 51.99 -14 52.98 -14 54 C-16.31 54 -18.62 54 -21 54 C-21 54.99 -21 55.98 -21 57 C-23.97 57 -26.94 57 -30 57 C-30 55.02 -30 53.04 -30 51 C-28.02 51 -26.04 51 -24 51 C-24 50.01 -24 49.02 -24 48 C-22.68 48 -21.36 48 -20 48 C-20 46.02 -20 44.04 -20 42 C-22.31 42 -24.62 42 -27 42 C-27 40.68 -27 39.36 -27 38 C-26.01 38 -25.02 38 -24 38 C-24 37.34 -24 36.68 -24 36 C-24.66 36 -25.32 36 -26 36 C-26 35.01 -26 34.02 -26 33 C-23.36 33 -20.72 33 -18 33 C-18 33.99 -18 34.98 -18 36 C-16.68 36 -15.36 36 -14 36 C-14 36.99 -14 37.98 -14 39 C-12.34385343 39.38218767 -10.67542976 39.71395102 -9 40 C-8.67 39.67 -8.34 39.34 -8 39 C-5.66702567 38.95907063 -3.33294775 38.95758277 -1 39 C-1 37.68 -1 36.36 -1 35 C0.98 35 2.96 35 5 35 C5 34.01 5 33.02 5 32 C4.34 32 3.68 32 3 32 C3 31.01 3 30.02 3 29 C3.66 29 4.32 29 5 29 C5 27.02 5 25.04 5 23 C0.05 23 -4.9 23 -10 23 C-10 23.99 -10 24.98 -10 26 C-15.61 26 -21.22 26 -27 26 C-27 25.67 -27 25.34 -27 25 C-21.72 25 -16.44 25 -11 25 C-11 24.01 -11 23.02 -11 22 C-5.72 22 -0.44 22 5 22 C5 21.01 5 20.02 5 19 C7.31 19 9.62 19 12 19 C12 27.91 12 36.82 12 46 C10.02 46 8.04 46 6 46 C6 46.66 6 47.32 6 48 C6.66 47.67 7.32 47.34 8 47 C9.98 47 11.96 47 14 47 C13.505 29.675 13.505 29.675 13 12 C12.34 11.67 11.68 11.34 11 11 C11 9.68 11 8.36 11 7 C10.01 7 9.02 7 8 7 C8 6.01 8 5.02 8 4 C5.69 4 3.38 4 1 4 C0.505 2.02 0.505 2.02 0 0 Z " fill="#B4A303" transform="translate(202,33)"/>
<path d="M0 0 C4.95 0 9.9 0 15 0 C15 1.98 15 3.96 15 6 C14.34 6 13.68 6 13 6 C13 6.99 13 7.98 13 9 C13.66 9 14.32 9 15 9 C15 9.99 15 10.98 15 12 C13.02 12 11.04 12 9 12 C9 13.32 9 14.64 9 16 C7.329375 16.2165625 7.329375 16.2165625 5.625 16.4375 C2.17857953 16.78372035 2.17857953 16.78372035 0 18 C0 17.34 0 16.68 0 16 C-1.32 16 -2.64 16 -4 16 C-4 15.01 -4 14.02 -4 13 C-5.32 13 -6.64 13 -8 13 C-8 12.01 -8 11.02 -8 10 C-10.64 10 -13.28 10 -16 10 C-16 10.99 -16 11.98 -16 13 C-15.34 13 -14.68 13 -14 13 C-14 13.66 -14 14.32 -14 15 C-14.99 15 -15.98 15 -17 15 C-17 16.32 -17 17.64 -17 19 C-14.69 19 -12.38 19 -10 19 C-10 20.98 -10 22.96 -10 25 C-11.32 25 -12.64 25 -14 25 C-14 25.99 -14 26.98 -14 28 C-15.98 28 -17.96 28 -20 28 C-20 29.32 -20 30.64 -20 32 C-21.98 32 -23.96 32 -26 32 C-26 32.99 -26 33.98 -26 35 C-27.32 35 -28.64 35 -30 35 C-30 35.66 -30 36.32 -30 37 C-30.66 37 -31.32 37 -32 37 C-32 36.34 -32 35.68 -32 35 C-33.32 35 -34.64 35 -36 35 C-36 33.02 -36 31.04 -36 29 C-37.98 29 -39.96 29 -42 29 C-42 28.01 -42 27.02 -42 26 C-41.01 26 -40.02 26 -39 26 C-39 24.68 -39 23.36 -39 22 C-38.01 22 -37.02 22 -36 22 C-36 19.69 -36 17.38 -36 15 C-35.01 15 -34.02 15 -33 15 C-33 14.01 -33 13.02 -33 12 C-32.01 12 -31.02 12 -30 12 C-30 11.01 -30 10.02 -30 9 C-27.69 9 -25.38 9 -23 9 C-23 8.01 -23 7.02 -23 6 C-21.02 6 -19.04 6 -17 6 C-17 5.01 -17 4.02 -17 3 C-11.39 3 -5.78 3 0 3 C0 2.01 0 1.02 0 0 Z " fill="#E5DC03" transform="translate(192,56)"/>
<path d="M0 0 C17.16 0 34.32 0 52 0 C52 1.98 52 3.96 52 6 C56.29 6 60.58 6 65 6 C65.33 6.99 65.66 7.98 66 9 C68.64 9 71.28 9 74 9 C74.33 9.66 74.66 10.32 75 11 C71.37 11 67.74 11 64 11 C64 10.01 64 9.02 64 8 C62.60974609 8.01740234 62.60974609 8.01740234 61.19140625 8.03515625 C59.99386719 8.04417969 58.79632813 8.05320312 57.5625 8.0625 C56.36753906 8.07410156 55.17257813 8.08570313 53.94140625 8.09765625 C51 8 51 8 50 7 C50 5.35 50 3.7 50 2 C33.83 2 17.66 2 1 2 C1 3.98 1 5.96 1 8 C0.01 8 -0.98 8 -2 8 C-2 9.98 -2 11.96 -2 14 C-2.66 14.33 -3.32 14.66 -4 15 C-4.65555119 17.52733235 -4.65555119 17.52733235 -5 20 C-4.34 20 -3.68 20 -3 20 C-3 21.98 -3 23.96 -3 26 C-3.99 26 -4.98 26 -6 26 C-6 26.99 -6 27.98 -6 29 C-8.31 29 -10.62 29 -13 29 C-13 30.32 -13 31.64 -13 33 C-14.65 33 -16.3 33 -18 33 C-18 33.99 -18 34.98 -18 36 C-19.32 36 -20.64 36 -22 36 C-22 36.99 -22 37.98 -22 39 C-23.98 39 -25.96 39 -28 39 C-28 40.98 -28 42.96 -28 45 C-30.31 45 -32.62 45 -35 45 C-35 46.32 -35 47.64 -35 49 C-37.97 49 -40.94 49 -44 49 C-44 49.99 -44 50.98 -44 52 C-47.3 52 -50.6 52 -54 52 C-54 52.99 -54 53.98 -54 55 C-60.27 55 -66.54 55 -73 55 C-73 55.99 -73 56.98 -73 58 C-76.3 58 -79.6 58 -83 58 C-83 58.99 -83 59.98 -83 61 C-85.31 61 -87.62 61 -90 61 C-90 59.68 -90 58.36 -90 57 C-88.95199219 56.94392578 -88.95199219 56.94392578 -87.8828125 56.88671875 C-86.97273438 56.82097656 -86.06265625 56.75523438 -85.125 56.6875 C-84.22007813 56.62949219 -83.31515625 56.57148437 -82.3828125 56.51171875 C-79.63778399 56.2117961 -79.63778399 56.2117961 -78 53 C-75.84521484 52.65942383 -75.84521484 52.65942383 -73.2109375 52.70703125 C-72.26992187 52.71669922 -71.32890625 52.72636719 -70.359375 52.73632812 C-69.37453125 52.76146484 -68.3896875 52.78660156 -67.375 52.8125 C-65.88613281 52.83280273 -65.88613281 52.83280273 -64.3671875 52.85351562 C-61.91091928 52.88894257 -59.45572715 52.93833804 -57 53 C-57 51.35 -57 49.7 -57 48 C-60.27773504 48.75150023 -60.27773504 48.75150023 -62 52 C-62 50.35 -62 48.7 -62 47 C-59.36 46.67 -56.72 46.34 -54 46 C-53.67 45.01 -53.34 44.02 -53 43 C-50.03 43 -47.06 43 -44 43 C-44 41.35 -44 39.7 -44 38 C-41.03 38 -38.06 38 -35 38 C-35 37.01 -35 36.02 -35 35 C-32.03 35 -29.06 35 -26 35 C-25.67 33.68 -25.34 32.36 -25 31 C-23 29 -23 29 -19.375 28.875 C-17.704375 28.936875 -17.704375 28.936875 -16 29 C-16 28.01 -16 27.02 -16 26 C-15.34 26 -14.68 26 -14 26 C-14 24.68 -14 23.36 -14 22 C-12.68 22 -11.36 22 -10 22 C-10 21.01 -10 20.02 -10 19 C-9.34 19 -8.68 19 -8 19 C-7.67 17.02 -7.34 15.04 -7 13 C-5.68 13 -4.36 13 -3 13 C-3.185625 12.21625 -3.37125 11.4325 -3.5625 10.625 C-4 8 -4 8 -3 6 C-2.01 6 -1.02 6 0 6 C0 4.02 0 2.04 0 0 Z " fill="#090E15" transform="translate(92,4)"/>
<path d="M0 0 C1.98 0 3.96 0 6 0 C5.01 0.66 4.02 1.32 3 2 C2.67 2.99 2.34 3.98 2 5 C-1.96 5 -5.92 5 -10 5 C-10 5.99 -10 6.98 -10 8 C-12.31 8 -14.62 8 -17 8 C-17 8.99 -17 9.98 -17 11 C-20.3 11 -23.6 11 -27 11 C-27 11.99 -27 12.98 -27 14 C-28.73820183 16.37859197 -29.80192188 16.94932885 -32.6875 17.6875 C-33.450625 17.790625 -34.21375 17.89375 -35 18 C-35.495 19.485 -35.495 19.485 -36 21 C-36.99 21 -37.98 21 -39 21 C-39 21.99 -39 22.98 -39 24 C-39.99 24 -40.98 24 -42 24 C-41.505 25.98 -41.505 25.98 -41 28 C-42.485 28.495 -42.485 28.495 -44 29 C-44.165 29.66 -44.33 30.32 -44.5 31 C-44.665 31.66 -44.83 32.32 -45 33 C-46.485 33.495 -46.485 33.495 -48 34 C-48.33 35.98 -48.66 37.96 -49 40 C-49.99 40 -50.98 40 -52 40 C-52 41.98 -52 43.96 -52 46 C-53.485 46.495 -53.485 46.495 -55 47 C-55 49.97 -55 52.94 -55 56 C-55.99 56 -56.98 56 -58 56 C-58 56.99 -58 57.98 -58 59 C-59.32 59 -60.64 59 -62 59 C-62 59.99 -62 60.98 -62 62 C-73.88 62 -85.76 62 -98 62 C-98.33 61.34 -98.66 60.68 -99 60 C-112.86 59.505 -112.86 59.505 -127 59 C-127.33 58.34 -127.66 57.68 -128 57 C-130.54941373 56.68758629 -133.00361513 56.48696579 -135.5625 56.375 C-136.27341797 56.33632812 -136.98433594 56.29765625 -137.71679688 56.2578125 C-139.47742425 56.16328217 -141.23867728 56.08054183 -143 56 C-143 55.01 -143 54.02 -143 53 C-146.3 53 -149.6 53 -153 53 C-153 52.01 -153 51.02 -153 50 C-155.97 50 -158.94 50 -162 50 C-162 49.01 -162 48.02 -162 47 C-158.04 47 -154.08 47 -150 47 C-150 48.32 -150 49.64 -150 51 C-147.03 51 -144.06 51 -141 51 C-141 51.99 -141 52.98 -141 54 C-135.72 54 -130.44 54 -125 54 C-125 54.99 -125 55.98 -125 57 C-115.43 57 -105.86 57 -96 57 C-96 57.99 -96 58.98 -96 60 C-85.44 60 -74.88 60 -64 60 C-64 59.01 -64 58.02 -64 57 C-62.68 57 -61.36 57 -60 57 C-60 56.01 -60 55.02 -60 54 C-59.01 54 -58.02 54 -57 54 C-57 50.7 -57 47.4 -57 44 C-56.34 44 -55.68 44 -55 44 C-55 41.69 -55 39.38 -55 37 C-53.68 37 -52.36 37 -51 37 C-51 35.02 -51 33.04 -51 31 C-50.01 31 -49.02 31 -48 31 C-48 29.02 -48 27.04 -48 25 C-47.01 25 -46.02 25 -45 25 C-45 24.01 -45 23.02 -45 22 C-44.01 22 -43.02 22 -42 22 C-42 20.68 -42 19.36 -42 18 C-41.01 18 -40.02 18 -39 18 C-38.505 16.515 -38.505 16.515 -38 15 C-36.02 15 -34.04 15 -32 15 C-32 14.01 -32 13.02 -32 12 C-31.01 12 -30.02 12 -29 12 C-29 11.01 -29 10.02 -29 9 C-25.7 9 -22.4 9 -19 9 C-19 8.01 -19 7.02 -19 6 C-17.02 6 -15.04 6 -13 6 C-13 4.68 -13 3.36 -13 2 C-8.71 2 -4.42 2 0 2 C0 1.34 0 0.68 0 0 Z " fill="#232013" transform="translate(201,82)"/>
<path d="M0 0 C1.98 0 3.96 0 6 0 C6 0.99 6 1.98 6 3 C9.3 3 12.6 3 16 3 C16 3.99 16 4.98 16 6 C19.3 6 22.6 6 26 6 C26 6.99 26 7.98 26 9 C32.27 9 38.54 9 45 9 C45 10.32 45 11.64 45 13 C45.66 13 46.32 13 47 13 C47 13.99 47 14.98 47 16 C61.85 16 76.7 16 92 16 C92 15.01 92 14.02 92 13 C93.32 13 94.64 13 96 13 C96 11.68 96 10.36 96 9 C97.65 9 99.3 9 101 9 C101 7.02 101 5.04 101 3 C101.33 3 101.66 3 102 3 C102 5.31 102 7.62 102 10 C101.01 10 100.02 10 99 10 C99 12.97 99 15.94 99 19 C96.69 19 94.38 19 92 19 C92 19.99 92 20.98 92 22 C91.34 22 90.68 22 90 22 C90 21.01 90 20.02 90 19 C74.82 19 59.64 19 44 19 C44 18.01 44 17.02 44 16 C37.73 16 31.46 16 25 16 C25 15.01 25 14.02 25 13 C21.7 13 18.4 13 15 13 C15 12.01 15 11.02 15 10 C12.03 10 9.06 10 6 10 C6 8.68 6 7.36 6 6 C4.02 6 2.04 6 0 6 C0 4.02 0 2.04 0 0 Z " fill="#181B0F" transform="translate(35,91)"/>
<path d="M0 0 C0.33 1.32 0.66 2.64 1 4 C0.01 4 -0.98 4 -2 4 C-2 4.99 -2 5.98 -2 7 C-0.02 7 1.96 7 4 7 C4 8.98 4 10.96 4 13 C5.32 13 6.64 13 8 13 C8 13.66 8 14.32 8 15 C8.66 15 9.32 15 10 15 C10 14.34 10 13.68 10 13 C11.32 13 12.64 13 14 13 C14 12.01 14 11.02 14 10 C15.98 10 17.96 10 20 10 C20 10.66 20 11.32 20 12 C22.97 12 25.94 12 29 12 C29 11.01 29 10.02 29 9 C31.31 9 33.62 9 36 9 C36 9.33 36 9.66 36 10 C34.02 10 32.04 10 30 10 C30 10.99 30 11.98 30 13 C26.7 13 23.4 13 20 13 C20 13.99 20 14.98 20 16 C19.01 16 18.02 16 17 16 C17 16.99 17 17.98 17 19 C16.030625 19.12375 15.06125 19.2475 14.0625 19.375 C13.051875 19.58125 12.04125 19.7875 11 20 C10.67 20.66 10.34 21.32 10 22 C9.01 22 8.02 22 7 22 C7 23.32 7 24.64 7 26 C6.01 26 5.02 26 4 26 C4 26.99 4 27.98 4 29 C3.01 29 2.02 29 1 29 C1 30.98 1 32.96 1 35 C0.01 35 -0.98 35 -2 35 C-2 36.98 -2 38.96 -2 41 C-2.99 41 -3.98 41 -5 41 C-5 40.34 -5 39.68 -5 39 C-6.32 39 -7.64 39 -9 39 C-9 39.66 -9 40.32 -9 41 C-9.99 41 -10.98 41 -12 41 C-12 40.01 -12 39.02 -12 38 C-10.02 38 -8.04 38 -6 38 C-6 29.75 -6 21.5 -6 13 C-5.01 13 -4.02 13 -3 13 C-3 11.02 -3 9.04 -3 7 C-4.65 7 -6.3 7 -8 7 C-8.33 7.66 -8.66 8.32 -9 9 C-9 8.01 -9 7.02 -9 6 C-7.02 6 -5.04 6 -3 6 C-3 5.01 -3 4.02 -3 3 C-2.01 3 -1.02 3 0 3 C0 2.01 0 1.02 0 0 Z " fill="#9F9007" transform="translate(152,78)"/>
<path d="M0 0 C1.98 0 3.96 0 6 0 C6.07347656 0.95712891 6.07347656 0.95712891 6.1484375 1.93359375 C6.22320313 2.75988281 6.29796875 3.58617188 6.375 4.4375 C6.44460937 5.26121094 6.51421875 6.08492188 6.5859375 6.93359375 C6.72257813 7.61550781 6.85921875 8.29742187 7 9 C7.66 9.33 8.32 9.66 9 10 C9 13.96 9 17.92 9 22 C9.99 22 10.98 22 12 22 C12.33 22.99 12.66 23.98 13 25 C15.97 25.33 18.94 25.66 22 26 C22 26.99 22 27.98 22 29 C22.99 29 23.98 29 25 29 C25 29.99 25 30.98 25 32 C24.34 32 23.68 32 23 32 C23 32.99 23 33.98 23 35 C23.66 35 24.32 35 25 35 C25 36.32 25 37.64 25 39 C25.99 39 26.98 39 28 39 C28 39.66 28 40.32 28 41 C23.545 41.495 23.545 41.495 19 42 C18.67 41.01 18.34 40.02 18 39 C16.02 39 14.04 39 12 39 C12 38.01 12 37.02 12 36 C11.01 36 10.02 36 9 36 C9 33.69 9 31.38 9 29 C8.01 29 7.02 29 6 29 C6 28.01 6 27.02 6 26 C4.02 26 2.04 26 0 26 C0 17.42 0 8.84 0 0 Z " fill="#917C05" transform="translate(3,78)"/>
<path d="M0 0 C1.65 0 3.3 0 5 0 C5 1.65 5 3.3 5 5 C8.46941546 4.54177532 11.67395049 4.10868317 15 3 C15 4.32 15 5.64 15 7 C12.03 7 9.06 7 6 7 C6 8.98 6 10.96 6 13 C-2.58 13 -11.16 13 -20 13 C-20.33 12.01 -20.66 11.02 -21 10 C-22.65 10 -24.3 10 -26 10 C-26 10.99 -26 11.98 -26 13 C-27.9375 12.6875 -27.9375 12.6875 -30 12 C-30.33 11.01 -30.66 10.02 -31 9 C-31.33 9.33 -31.66 9.66 -32 10 C-33.68608966 10.07205511 -35.37500659 10.08386068 -37.0625 10.0625 C-37.98160156 10.05347656 -38.90070313 10.04445312 -39.84765625 10.03515625 C-40.55792969 10.02355469 -41.26820312 10.01195312 -42 10 C-42.33 9.01 -42.66 8.02 -43 7 C-43.66 7 -44.32 7 -45 7 C-45 7.99 -45 8.98 -45 10 C-47.31 10 -49.62 10 -52 10 C-52 7.69 -52 5.38 -52 3 C-48.7 3 -45.4 3 -42 3 C-42 3.99 -42 4.98 -42 6 C-40.02 6 -38.04 6 -36 6 C-36 5.01 -36 4.02 -36 3 C-34.02 3 -32.04 3 -30 3 C-29.67 4.98 -29.34 6.96 -29 9 C-28.01 9 -27.02 9 -26 9 C-26 8.01 -26 7.02 -26 6 C-24.02 6 -22.04 6 -20 6 C-19.505 7.485 -19.505 7.485 -19 9 C-16.525 9.495 -16.525 9.495 -14 10 C-14 7.69 -14 5.38 -14 3 C-11.69 3 -9.38 3 -7 3 C-7 3.99 -7 4.98 -7 6 C-6.01 6 -5.02 6 -4 6 C-4 5.01 -4 4.02 -4 3 C-3.01 2.67 -2.02 2.34 -1 2 C-0.67 1.34 -0.34 0.68 0 0 Z " fill="#D4C805" transform="translate(125,123)"/>
<path d="M0 0 C1.65 0 3.3 0 5 0 C5 2.97 5 5.94 5 9 C4.34 9 3.68 9 3 9 C3 12.3 3 15.6 3 19 C2.01 19 1.02 19 0 19 C0 19.99 0 20.98 0 22 C-1.32 22 -2.64 22 -4 22 C-4 24.31 -4 26.62 -4 29 C-4.99 29 -5.98 29 -7 29 C-7 29.99 -7 30.98 -7 32 C-7.99 32 -8.98 32 -10 32 C-10 32.99 -10 33.98 -10 35 C-11.98 35 -13.96 35 -16 35 C-16 35.99 -16 36.98 -16 38 C-18.31 38 -20.62 38 -23 38 C-23 38.99 -23 39.98 -23 41 C-25.31 41 -27.62 41 -30 41 C-30 41.99 -30 42.98 -30 44 C-30.66 44 -31.32 44 -32 44 C-32 41.03 -32 38.06 -32 35 C-30.02 35 -28.04 35 -26 35 C-26 34.01 -26 33.02 -26 32 C-24.68 32 -23.36 32 -22 32 C-22 31.01 -22 30.02 -22 29 C-20.35 29 -18.7 29 -17 29 C-17 27.68 -17 26.36 -17 25 C-14.69 25 -12.38 25 -10 25 C-10 24.01 -10 23.02 -10 22 C-9.01 22 -8.02 22 -7 22 C-7 19.69 -7 17.38 -7 15 C-6.01 15 -5.02 15 -4 15 C-4 13.02 -4 11.04 -4 9 C-2.68 9 -1.36 9 0 9 C0 6.03 0 3.06 0 0 Z " fill="#016AA5" transform="translate(96,8)"/>
<path d="M0 0 C1.65 0 3.3 0 5 0 C5 3.96 5 7.92 5 12 C3.35 12 1.7 12 0 12 C0 13.32 0 14.64 0 16 C-1.32 16 -2.64 16 -4 16 C-4 16.99 -4 17.98 -4 19 C-18.85 19 -33.7 19 -49 19 C-49 18.01 -49 17.02 -49 16 C-49.66 16 -50.32 16 -51 16 C-51 15.01 -51 14.02 -51 13 C-47.04 13 -43.08 13 -39 13 C-39 13.99 -39 14.98 -39 16 C-33.39 16 -27.78 16 -22 16 C-22 15.01 -22 14.02 -22 13 C-19.03 13 -16.06 13 -13 13 C-13 11.68 -13 10.36 -13 9 C-11.02 9 -9.04 9 -7 9 C-7 8.01 -7 7.02 -7 6 C-6.01 6 -5.02 6 -4 6 C-4 5.01 -4 4.02 -4 3 C-2.68 3 -1.36 3 0 3 C0 2.01 0 1.02 0 0 Z " fill="#0072AF" transform="translate(131,88)"/>
<path d="M0 0 C2.64 0 5.28 0 8 0 C8 0.66 8 1.32 8 2 C7.01 2 6.02 2 5 2 C5 2.99 5 3.98 5 5 C3.02 5 1.04 5 -1 5 C-1 5.99 -1 6.98 -1 8 C-1.99 8.33 -2.98 8.66 -4 9 C-4.33 9.99 -4.66 10.98 -5 12 C-4.01 12 -3.02 12 -2 12 C-2 12.99 -2 13.98 -2 15 C-0.68 15 0.64 15 2 15 C2 15.99 2 16.98 2 18 C3.32 18.33 4.64 18.66 6 19 C6 19.66 6 20.32 6 21 C6.99 21.33 7.98 21.66 9 22 C9 22.66 9 23.32 9 24 C10.98 24 12.96 24 15 24 C15 28.29 15 32.58 15 37 C14.67 37 14.34 37 14 37 C14 35.02 14 33.04 14 31 C12.02 31 10.04 31 8 31 C8 30.01 8 29.02 8 28 C6.02 28 4.04 28 2 28 C2 26.68 2 25.36 2 24 C1.01 24 0.02 24 -1 24 C-1 23.01 -1 22.02 -1 21 C-1.99 21 -2.98 21 -4 21 C-4 20.01 -4 19.02 -4 18 C-5.32 18 -6.64 18 -8 18 C-8 17.01 -8 16.02 -8 15 C-8.99 15 -9.98 15 -11 15 C-11 14.01 -11 13.02 -11 12 C-13.31 12 -15.62 12 -18 12 C-18 9.69 -18 7.38 -18 5 C-15.69 5 -13.38 5 -11 5 C-11 4.01 -11 3.02 -11 2 C-7.37 2 -3.74 2 0 2 C0 1.34 0 0.68 0 0 Z " fill="#17789D" transform="translate(20,60)"/>
<path d="M0 0 C1.65 0 3.3 0 5 0 C5 1.98 5 3.96 5 6 C4.01 6 3.02 6 2 6 C2 12.27 2 18.54 2 25 C0.02 25 -1.96 25 -4 25 C-4 25.99 -4 26.98 -4 28 C-4.66 28 -5.32 28 -6 28 C-6 29.32 -6 30.64 -6 32 C-7.65 32 -9.3 32 -11 32 C-11 30.35 -11 28.7 -11 27 C-12.32 27 -13.64 27 -15 27 C-15 27.66 -15 28.32 -15 29 C-16.65 29 -18.3 29 -20 29 C-20 28.01 -20 27.02 -20 26 C-34.85 26 -49.7 26 -65 26 C-65 25.67 -65 25.34 -65 25 C-49.82 25 -34.64 25 -19 25 C-19 25.99 -19 26.98 -19 28 C-18.34 28 -17.68 28 -17 28 C-17 27.01 -17 26.02 -17 25 C-14.69 25 -12.38 25 -10 25 C-10 22.03 -10 19.06 -10 16 C-9.01 16 -8.02 16 -7 16 C-7 12.7 -7 9.4 -7 6 C-6.01 6 -5.02 6 -4 6 C-4 4.68 -4 3.36 -4 2 C-2.68 2 -1.36 2 0 2 C0 1.34 0 0.68 0 0 Z " fill="#F3F106" transform="translate(144,85)"/>
<path d="M0 0 C0.33 0 0.66 0 1 0 C1 1.98 1 3.96 1 6 C-0.32 6 -1.64 6 -3 6 C-2.01 6.99 -2.01 6.99 -1 8 C-2 11 -2 11 -3 13 C-3.66 13 -4.32 13 -5 13 C-5.33 15.31 -5.66 17.62 -6 20 C-6.33 20 -6.66 20 -7 20 C-7.33 22.97 -7.66 25.94 -8 29 C-9.32 29 -10.64 29 -12 29 C-12 29.99 -12 30.98 -12 32 C-12.99 32 -13.98 32 -15 32 C-15 32.99 -15 33.98 -15 35 C-28.2 35 -41.4 35 -55 35 C-55.33 34.01 -55.66 33.02 -56 32 C-64.91 32 -73.82 32 -83 32 C-83.495 31.01 -83.495 31.01 -84 30 C-86.54941373 29.68758629 -89.00361513 29.48696579 -91.5625 29.375 C-92.27341797 29.33632812 -92.98433594 29.29765625 -93.71679688 29.2578125 C-95.47742425 29.16328217 -97.23867728 29.08054183 -99 29 C-99 27.68 -99 26.36 -99 25 C-102.63 25 -106.26 25 -110 25 C-110 24.34 -110 23.68 -110 23 C-110.63808594 22.95101562 -111.27617188 22.90203125 -111.93359375 22.8515625 C-112.75988281 22.77679688 -113.58617188 22.70203125 -114.4375 22.625 C-115.26121094 22.55539063 -116.08492187 22.48578125 -116.93359375 22.4140625 C-117.61550781 22.27742188 -118.29742187 22.14078125 -119 22 C-119.33 21.34 -119.66 20.68 -120 20 C-122.64 20 -125.28 20 -128 20 C-128.33 19.01 -128.66 18.02 -129 17 C-127.68 16.67 -126.36 16.34 -125 16 C-125 15.01 -125 14.02 -125 13 C-126.98 13 -128.96 13 -131 13 C-131 12.67 -131 12.34 -131 12 C-128.69 12 -126.38 12 -124 12 C-124 12.99 -124 13.98 -124 15 C-121.03 15 -118.06 15 -115 15 C-115 15.99 -115 16.98 -115 18 C-115.66 18 -116.32 18 -117 18 C-117 18.99 -117 19.98 -117 21 C-114.03 21 -111.06 21 -108 21 C-108 21.99 -108 22.98 -108 24 C-104.7 24 -101.4 24 -98 24 C-98 24.99 -98 25.98 -98 27 C-93.05 27 -88.1 27 -83 27 C-82.505 28.485 -82.505 28.485 -82 30 C-72.76 30 -63.52 30 -54 30 C-53.505 31.485 -53.505 31.485 -53 33 C-41.12 33 -29.24 33 -17 33 C-17 32.01 -17 31.02 -17 30 C-15.68 30 -14.36 30 -13 30 C-13 29.01 -13 28.02 -13 27 C-12.01 27 -11.02 27 -10 27 C-10 24.03 -10 21.06 -10 18 C-9.01 17.505 -9.01 17.505 -8 17 C-7.34227572 13.97065509 -7.34227572 13.97065509 -7 11 C-6.01 11 -5.02 11 -4 11 C-4 9.02 -4 7.04 -4 5 C-2.68 4.67 -1.36 4.34 0 4 C0 2.68 0 1.36 0 0 Z " fill="#8E8E8E" transform="translate(156,111)"/>
<path d="M0 0 C0.99 0 1.98 0 3 0 C3 0.99 3 1.98 3 3 C4.65 2.67 6.3 2.34 8 2 C8.495 3.98 8.495 3.98 9 6 C10.32 6.33 11.64 6.66 13 7 C13 7.66 13 8.32 13 9 C13.66 9 14.32 9 15 9 C15 22.2 15 35.4 15 49 C13.02 49 11.04 49 9 49 C9 49.99 9 50.98 9 52 C7.02 52 5.04 52 3 52 C2.67 53.32 2.34 54.64 2 56 C-1.63 56 -5.26 56 -9 56 C-9.33 56.99 -9.66 57.98 -10 59 C-12.31 59 -14.62 59 -17 59 C-17 59.66 -17 60.32 -17 61 C-19.97 61 -22.94 61 -26 61 C-26 62.32 -26 63.64 -26 65 C-26.99 65 -27.98 65 -29 65 C-29 65.99 -29 66.98 -29 68 C-30.98 68 -32.96 68 -35 68 C-35 68.99 -35 69.98 -35 71 C-36.32 71 -37.64 71 -39 71 C-39 72.32 -39 73.64 -39 75 C-40.98 75.495 -40.98 75.495 -43 76 C-43 75.01 -43 74.02 -43 73 C-42.01 73 -41.02 73 -40 73 C-40 72.01 -40 71.02 -40 70 C-39.01 70 -38.02 70 -37 70 C-36.67 68.68 -36.34 67.36 -36 66 C-34.35 66 -32.7 66 -31 66 C-30.67 65.01 -30.34 64.02 -30 63 C-29.34 63 -28.68 63 -28 63 C-28 62.01 -28 61.02 -28 60 C-24.7 60 -21.4 60 -18 60 C-18 59.01 -18 58.02 -18 57 C-15.69 57 -13.38 57 -11 57 C-11 56.01 -11 55.02 -11 54 C-7.04 54 -3.08 54 1 54 C1.33 52.68 1.66 51.36 2 50 C1.01 49.34 0.02 48.68 -1 48 C0.98 48 2.96 48 5 48 C5 47.01 5 46.02 5 45 C6.98 45 8.96 45 11 45 C11 37.08 11 29.16 11 21 C10.34 21 9.68 21 9 21 C9 24.96 9 28.92 9 33 C8.01 33 7.02 33 6 33 C6 29.7 6 26.4 6 23 C0.72 23 -4.56 23 -10 23 C-10 23.99 -10 24.98 -10 26 C-15.61 26 -21.22 26 -27 26 C-27 25.67 -27 25.34 -27 25 C-21.72 25 -16.44 25 -11 25 C-11 24.01 -11 23.02 -11 22 C-5.72 22 -0.44 22 5 22 C5 21.01 5 20.02 5 19 C7.31 19 9.62 19 12 19 C12 27.91 12 36.82 12 46 C10.02 46 8.04 46 6 46 C6 46.66 6 47.32 6 48 C6.66 47.67 7.32 47.34 8 47 C9.98 47 11.96 47 14 47 C13.505 29.675 13.505 29.675 13 12 C12.34 11.67 11.68 11.34 11 11 C11 9.68 11 8.36 11 7 C10.01 7 9.02 7 8 7 C8 6.01 8 5.02 8 4 C5.69 4 3.38 4 1 4 C0.505 2.02 0.505 2.02 0 0 Z " fill="#796D0D" transform="translate(202,33)"/>
<path d="M0 0 C4.95 0 9.9 0 15 0 C14.67 0.99 14.34 1.98 14 3 C13.34 3 12.68 3 12 3 C11.67 4.98 11.34 6.96 11 9 C10.34 9 9.68 9 9 9 C9 8.01 9 7.02 9 6 C6.69 6 4.38 6 2 6 C2 7.32 2 8.64 2 10 C3.98 10 5.96 10 8 10 C8 11.65 8 13.3 8 15 C4.37 15 0.74 15 -3 15 C-3 14.01 -3 13.02 -3 12 C-4.32 12 -5.64 12 -7 12 C-7 11.01 -7 10.02 -7 9 C-10.3 9 -13.6 9 -17 9 C-17 9.99 -17 10.98 -17 12 C-18.66611905 12.042721 -20.33382885 12.04063832 -22 12 C-23 11 -23 11 -23.0625 8.4375 C-23.041875 7.633125 -23.02125 6.82875 -23 6 C-21.02 6 -19.04 6 -17 6 C-17 5.01 -17 4.02 -17 3 C-11.39 3 -5.78 3 0 3 C0 2.01 0 1.02 0 0 Z " fill="#F7F505" transform="translate(192,56)"/>
<path d="M0 0 C3.96 0 7.92 0 12 0 C12 1.32 12 2.64 12 4 C14.97 4 17.94 4 21 4 C21 4.99 21 5.98 21 7 C26.28 7 31.56 7 37 7 C37 7.99 37 8.98 37 10 C46.57 10 56.14 10 66 10 C66 10.99 66 11.98 66 13 C77.22 12.67 88.44 12.34 100 12 C100 12.99 100 13.98 100 15 C88.12 15 76.24 15 64 15 C63.505 14.01 63.505 14.01 63 13 C49.14 12.505 49.14 12.505 35 12 C34.505 11.01 34.505 11.01 34 10 C31.45058627 9.68758629 28.99638487 9.48696579 26.4375 9.375 C25.72658203 9.33632812 25.01566406 9.29765625 24.28320312 9.2578125 C22.52257575 9.16328217 20.76132272 9.08054183 19 9 C19 8.01 19 7.02 19 6 C15.7 6 12.4 6 9 6 C9 5.01 9 4.02 9 3 C6.03 3 3.06 3 0 3 C0 2.01 0 1.02 0 0 Z " fill="#111009" transform="translate(39,129)"/>
<path d="M0 0 C2.64 0 5.28 0 8 0 C8 0.99 8 1.98 8 3 C9.32 3 10.64 3 12 3 C12 3.99 12 4.98 12 6 C13.65614657 6.38218767 15.32457024 6.71395102 17 7 C17.33 6.67 17.66 6.34 18 6 C20.33297433 5.95907063 22.66705225 5.95758277 25 6 C25 7.98 25 9.96 25 12 C21.04 12 17.08 12 13 12 C13 12.99 13 13.98 13 15 C10.69 15 8.38 15 6 15 C6 13.02 6 11.04 6 9 C3.69 9 1.38 9 -1 9 C-1 7.68 -1 6.36 -1 5 C-0.01 5 0.98 5 2 5 C2 4.34 2 3.68 2 3 C1.34 3 0.68 3 0 3 C0 2.01 0 1.02 0 0 Z " fill="#C6B902" transform="translate(176,66)"/>
<path d="M0 0 C17.16 0 34.32 0 52 0 C52 1.98 52 3.96 52 6 C56.29 6 60.58 6 65 6 C65.495 7.485 65.495 7.485 66 9 C68.64 9 71.28 9 74 9 C74.495 9.99 74.495 9.99 75 11 C71.37 11 67.74 11 64 11 C64 10.01 64 9.02 64 8 C62.60974609 8.01740234 62.60974609 8.01740234 61.19140625 8.03515625 C59.99386719 8.04417969 58.79632813 8.05320312 57.5625 8.0625 C56.36753906 8.07410156 55.17257813 8.08570313 53.94140625 8.09765625 C51 8 51 8 50 7 C50 5.35 50 3.7 50 2 C33.83 2 17.66 2 1 2 C1 3.98 1 5.96 1 8 C0.01 8 -0.98 8 -2 8 C-2 9.98 -2 11.96 -2 14 C-2.99 14.495 -2.99 14.495 -4 15 C-4.65555119 17.52733235 -4.65555119 17.52733235 -5 20 C-5.66 20 -6.32 20 -7 20 C-7 17.69 -7 15.38 -7 13 C-5.68 13 -4.36 13 -3 13 C-3.185625 12.21625 -3.37125 11.4325 -3.5625 10.625 C-4 8 -4 8 -3 6 C-2.01 6 -1.02 6 0 6 C0 4.02 0 2.04 0 0 Z " fill="#858585" transform="translate(92,4)"/>
<path d="M0 0 C0.33 1.32 0.66 2.64 1 4 C0.01 4 -0.98 4 -2 4 C-2 4.99 -2 5.98 -2 7 C-0.02 7 1.96 7 4 7 C4 8.98 4 10.96 4 13 C3.01 13 2.02 13 1 13 C1 17.29 1 21.58 1 26 C0.01 26 -0.98 26 -2 26 C-2 26.99 -2 27.98 -2 29 C-2.99 29 -3.98 29 -5 29 C-5 30.98 -5 32.96 -5 35 C-4.34 35 -3.68 35 -3 35 C-3 36.98 -3 38.96 -3 41 C-3.66 41 -4.32 41 -5 41 C-5 40.34 -5 39.68 -5 39 C-6.32 39 -7.64 39 -9 39 C-9 39.66 -9 40.32 -9 41 C-9.99 41 -10.98 41 -12 41 C-12 40.01 -12 39.02 -12 38 C-10.02 38 -8.04 38 -6 38 C-6 29.75 -6 21.5 -6 13 C-5.01 13 -4.02 13 -3 13 C-3 11.02 -3 9.04 -3 7 C-4.65 7 -6.3 7 -8 7 C-8.33 7.66 -8.66 8.32 -9 9 C-9 8.01 -9 7.02 -9 6 C-7.02 6 -5.04 6 -3 6 C-3 5.01 -3 4.02 -3 3 C-2.01 3 -1.02 3 0 3 C0 2.01 0 1.02 0 0 Z " fill="#C5BB07" transform="translate(152,78)"/>
<path d="M0 0 C0.33 0.99 0.66 1.98 1 3 C2.98 3 4.96 3 7 3 C7 3.99 7 4.98 7 6 C9.97 6 12.94 6 16 6 C16 7.32 16 8.64 16 10 C21.28 10 26.56 10 32 10 C32 10.99 32 11.98 32 13 C30.02 13 28.04 13 26 13 C26 13.99 26 14.98 26 16 C23.69 16 21.38 16 19 16 C19 15.01 19 14.02 19 13 C16.03 13 13.06 13 10 13 C10 12.01 10 11.02 10 10 C6.7 10 3.4 10 0 10 C0 9.01 0 8.02 0 7 C-1.98 7 -3.96 7 -6 7 C-6 6.01 -6 5.02 -6 4 C-4.02 4 -2.04 4 0 4 C0 2.68 0 1.36 0 0 Z " fill="#E1D803" transform="translate(41,113)"/>
<path d="M0 0 C2.64 0 5.28 0 8 0 C8 0.66 8 1.32 8 2 C7.01 2 6.02 2 5 2 C5 2.99 5 3.98 5 5 C3.02 5 1.04 5 -1 5 C-1 5.99 -1 6.98 -1 8 C-1.99 8.33 -2.98 8.66 -4 9 C-4.43957031 9.68578125 -4.87914062 10.3715625 -5.33203125 11.078125 C-5.88246094 11.71234375 -6.43289063 12.3465625 -7 13 C-9.69921875 13.171875 -9.69921875 13.171875 -12.6875 12.75 C-13.68136719 12.62109375 -14.67523438 12.4921875 -15.69921875 12.359375 C-16.45847656 12.24078125 -17.21773437 12.1221875 -18 12 C-18 9.69 -18 7.38 -18 5 C-15.69 5 -13.38 5 -11 5 C-11 4.01 -11 3.02 -11 2 C-7.37 2 -3.74 2 0 2 C0 1.34 0 0.68 0 0 Z " fill="#035F8F" transform="translate(20,60)"/>
<path d="M0 0 C2.31 0.33 4.62 0.66 7 1 C7 2.98 7 4.96 7 7 C6.01 7 5.02 7 4 7 C4 7.99 4 8.98 4 10 C1.69 10 -0.62 10 -3 10 C-3 11.32 -3 12.64 -3 14 C-4.65 14 -6.3 14 -8 14 C-8 14.99 -8 15.98 -8 17 C-9.32 17 -10.64 17 -12 17 C-12 16.34 -12 15.68 -12 15 C-12.99 15 -13.98 15 -15 15 C-15 15.66 -15 16.32 -15 17 C-19.95 17.495 -19.95 17.495 -25 18 C-25 17.34 -25 16.68 -25 16 C-22.03 16 -19.06 16 -16 16 C-15.67 14.68 -15.34 13.36 -15 12 C-13 10 -13 10 -9.375 9.875 C-7.704375 9.936875 -7.704375 9.936875 -6 10 C-6 9.01 -6 8.02 -6 7 C-5.34 7 -4.68 7 -4 7 C-4 5.68 -4 4.36 -4 3 C-2.68 3 -1.36 3 0 3 C0 2.01 0 1.02 0 0 Z " fill="#393B3E" transform="translate(82,23)"/>
<path d="M0 0 C2.31 0 4.62 0 7 0 C7.33 0.66 7.66 1.32 8 2 C9.32 1.67 10.64 1.34 12 1 C12 3.31 12 5.62 12 8 C12.99 8 13.98 8 15 8 C15 8.99 15 9.98 15 11 C16.98 11 18.96 11 21 11 C21.33 11.66 21.66 12.32 22 13 C22.99 13.33 23.98 13.66 25 14 C25 15.32 25 16.64 25 18 C26.98 18 28.96 18 31 18 C31 18.99 31 19.98 31 21 C33.64 21 36.28 21 39 21 C39 21.33 39 21.66 39 22 C37.02090602 22.02686553 35.04171029 22.04633375 33.0625 22.0625 C31.96035156 22.07410156 30.85820312 22.08570313 29.72265625 22.09765625 C27 22 27 22 26 21 C24.33382885 20.95936168 22.66611905 20.957279 21 21 C21 20.01 21 19.02 21 18 C20.01 18 19.02 18 18 18 C18 16.68 18 15.36 18 14 C15.69 14 13.38 14 11 14 C11 13.01 11 12.02 11 11 C10.34 11 9.68 11 9 11 C9 8.69 9 6.38 9 4 C6.01758453 3.22678118 3.02419525 2.58803797 0 2 C0 1.34 0 0.68 0 0 Z " fill="#333233" transform="translate(0,106)"/>
<path d="M0 0 C0.33 0 0.66 0 1 0 C1 1.65 1 3.3 1 5 C-1.97 5 -4.94 5 -8 5 C-8.33 6.32 -8.66 7.64 -9 9 C-11.64 9 -14.28 9 -17 9 C-16.67 9.66 -16.34 10.32 -16 11 C-14.68 10.67 -13.36 10.34 -12 10 C-12 11.65 -12 13.3 -12 15 C-18.66979283 17.22326428 -26.15583251 16.01395074 -33 15 C-33 15.66 -33 16.32 -33 17 C-33.99 16.67 -34.98 16.34 -36 16 C-35.34 14.68 -34.68 13.36 -34 12 C-28.25 11.875 -28.25 11.875 -26 13 C-26 12.01 -26 11.02 -26 10 C-24.02 10 -22.04 10 -20 10 C-20 9.01 -20 8.02 -20 7 C-16.7 7 -13.4 7 -10 7 C-9.67 5.68 -9.34 4.36 -9 3 C-5.92382812 2.70703125 -5.92382812 2.70703125 -2.84765625 2.4140625 C-2.23792969 2.27742188 -1.62820312 2.14078125 -1 2 C-0.67 1.34 -0.34 0.68 0 0 Z " fill="#575E61" transform="translate(47,42)"/>
<path d="M0 0 C1.65 0 3.3 0 5 0 C5 1.65 5 3.3 5 5 C8.46941546 4.54177532 11.67395049 4.10868317 15 3 C15 3.99 15 4.98 15 6 C11.7 6 8.4 6 5 6 C5 7.98 5 9.96 5 12 C-2.92 12 -10.84 12 -19 12 C-19 11.67 -19 11.34 -19 11 C-13.06 10.505 -13.06 10.505 -7 10 C-7 8.68 -7 7.36 -7 6 C-6.01 6 -5.02 6 -4 6 C-4 5.01 -4 4.02 -4 3 C-3.01 2.67 -2.02 2.34 -1 2 C-0.67 1.34 -0.34 0.68 0 0 Z " fill="#E7DE02" transform="translate(125,123)"/>
<path d="M0 0 C1.98 0 3.96 0 6 0 C6.495 2.475 6.495 2.475 7 5 C5.68 5 4.36 5 3 5 C3 6.32 3 7.64 3 9 C2.34 9 1.68 9 1 9 C1 10.32 1 11.64 1 13 C-0.65 13 -2.3 13 -4 13 C-4 11.35 -4 9.7 -4 8 C-5.32 8 -6.64 8 -8 8 C-8 8.66 -8 9.32 -8 10 C-9.65 10 -11.3 10 -13 10 C-13 9.01 -13 8.02 -13 7 C-27.85 7 -42.7 7 -58 7 C-58 6.67 -58 6.34 -58 6 C-42.82 6 -27.64 6 -12 6 C-12 6.99 -12 7.98 -12 9 C-11.34 9 -10.68 9 -10 9 C-10 8.01 -10 7.02 -10 6 C-6.7 6 -3.4 6 0 6 C0 4.02 0 2.04 0 0 Z " fill="#D2CB0C" transform="translate(137,104)"/>
<path d="M0 0 C1.32 0 2.64 0 4 0 C4 0.99 4 1.98 4 3 C5.98 3 7.96 3 10 3 C10 2.01 10 1.02 10 0 C12.31 0 14.62 0 17 0 C17 2.31 17 4.62 17 7 C15.02 7 13.04 7 11 7 C11 7.99 11 8.98 11 10 C13.97 10 16.94 10 20 10 C20 10.99 20 11.98 20 13 C19.01 13 18.02 13 17 13 C17 13.99 17 14.98 17 16 C15.02 16 13.04 16 11 16 C11 15.01 11 14.02 11 13 C10.01 13 9.02 13 8 13 C8 12.01 8 11.02 8 10 C8.66 10 9.32 10 10 10 C10 9.01 10 8.02 10 7 C9.01 7 8.02 7 7 7 C7 6.01 7 5.02 7 4 C4.03 4 1.06 4 -2 4 C-1.34 3.67 -0.68 3.34 0 3 C0 2.01 0 1.02 0 0 Z " fill="#E4DD04" transform="translate(18,100)"/>
<path d="M0 0 C1.65 0 3.3 0 5 0 C5 2.97 5 5.94 5 9 C4.34 9 3.68 9 3 9 C3 12.3 3 15.6 3 19 C2.01 19 1.02 19 0 19 C0 19.99 0 20.98 0 22 C-1.98 22.33 -3.96 22.66 -6 23 C-6 20.69 -6 18.38 -6 16 C-5.01 16 -4.02 16 -3 16 C-3 14.02 -3 12.04 -3 10 C-2.34 9.67 -1.68 9.34 -1 9 C-0.53348793 6.87423218 -0.53348793 6.87423218 -0.375 4.4375 C-0.30023438 3.61121094 -0.22546875 2.78492188 -0.1484375 1.93359375 C-0.09945312 1.29550781 -0.05046875 0.65742188 0 0 Z M-9 23 C-8.01 23.33 -7.02 23.66 -6 24 C-6.99 24.33 -7.98 24.66 -9 25 C-9 24.34 -9 23.68 -9 23 Z " fill="#0174B1" transform="translate(96,8)"/>
<path d="M0 0 C1.98 0 3.96 0 6 0 C6 0.66 6 1.32 6 2 C7.32 2.33 8.64 2.66 10 3 C9.67 7.29 9.34 11.58 9 16 C7.35 16 5.7 16 4 16 C3.67 14.68 3.34 13.36 3 12 C1.02 12 -0.96 12 -3 12 C-3.33 12.99 -3.66 13.98 -4 15 C-4 13.68 -4 12.36 -4 11 C-2.35 10.67 -0.7 10.34 1 10 C0.67 9.67 0.34 9.34 0 9 C-0.07179964 7.48071962 -0.08392007 5.95832518 -0.0625 4.4375 C-0.05347656 3.61121094 -0.04445313 2.78492187 -0.03515625 1.93359375 C-0.02355469 1.29550781 -0.01195313 0.65742187 0 0 Z " fill="#F8F502" transform="translate(102,117)"/>
<path d="M0 0 C1.98 0 3.96 0 6 0 C5.01 0.66 4.02 1.32 3 2 C2.67 2.99 2.34 3.98 2 5 C-1.96 5 -5.92 5 -10 5 C-10 5.99 -10 6.98 -10 8 C-12.31 8 -14.62 8 -17 8 C-17 8.99 -17 9.98 -17 11 C-20.3 11 -23.6 11 -27 11 C-27 11.99 -27 12.98 -27 14 C-28.1875 15.6875 -28.1875 15.6875 -30 17 C-32.6875 17.1875 -32.6875 17.1875 -35 17 C-34.01 16.67 -33.02 16.34 -32 16 C-32 14.68 -32 13.36 -32 12 C-31.01 12 -30.02 12 -29 12 C-29 11.01 -29 10.02 -29 9 C-25.7 9 -22.4 9 -19 9 C-19 8.01 -19 7.02 -19 6 C-17.02 6 -15.04 6 -13 6 C-13 4.68 -13 3.36 -13 2 C-8.71 2 -4.42 2 0 2 C0 1.34 0 0.68 0 0 Z " fill="#0D0C05" transform="translate(201,82)"/>
<path d="M0 0 C0.99 0 1.98 0 3 0 C3 1.98 3 3.96 3 6 C1.35 6 -0.3 6 -2 6 C-2 7.32 -2 8.64 -2 10 C-3.32 10 -4.64 10 -6 10 C-6 10.99 -6 11.98 -6 13 C-20.85 13 -35.7 13 -51 13 C-51 12.01 -51 11.02 -51 10 C-51.66 9.67 -52.32 9.34 -53 9 C-52.01 9 -51.02 9 -50 9 C-50 9.99 -50 10.98 -50 12 C-37.79 12 -25.58 12 -13 12 C-13 11.01 -13 10.02 -13 9 C-10.69 9 -8.38 9 -6 9 C-6 8.01 -6 7.02 -6 6 C-5.01 6 -4.02 6 -3 6 C-3 4.68 -3 3.36 -3 2 C-2.01 2 -1.02 2 0 2 C0 1.34 0 0.68 0 0 Z " fill="#064979" transform="translate(133,94)"/>
<path d="M0 0 C1.32 0 2.64 0 4 0 C4 0.66 4 1.32 4 2 C4.66 2 5.32 2 6 2 C6 3.32 6 4.64 6 6 C5.01 6 4.02 6 3 6 C3 7.98 3 9.96 3 12 C3.99 12.33 4.98 12.66 6 13 C5.01 13 4.02 13 3 13 C3 13.99 3 14.98 3 16 C2.01 16 1.02 16 0 16 C0 17.98 0 19.96 0 22 C-0.99 22 -1.98 22 -3 22 C-3 23.98 -3 25.96 -3 28 C-3.33 28 -3.66 28 -4 28 C-4 26.02 -4 24.04 -4 22 C-4.66 22 -5.32 22 -6 22 C-6 20.02 -6 18.04 -6 16 C-5.01 16 -4.02 16 -3 16 C-3 15.01 -3 14.02 -3 13 C-2.01 13 -1.02 13 0 13 C0 8.71 0 4.42 0 0 Z " fill="#9F8B06" transform="translate(153,91)"/>
<path d="M0 0 C1.98 0 3.96 0 6 0 C6 0.99 6 1.98 6 3 C6.99 3 7.98 3 9 3 C9 3.99 9 4.98 9 6 C8.34 6 7.68 6 7 6 C6.67 6.99 6.34 7.98 6 9 C6 8.01 6 7.02 6 6 C5.690625 6.61875 5.38125 7.2375 5.0625 7.875 C4.375 9.25 3.6875 10.625 3 12 C1.02 12 -0.96 12 -3 12 C-3 11.01 -3 10.02 -3 9 C-3.99 9 -4.98 9 -6 9 C-5.67 7.02 -5.34 5.04 -5 3 C-4.360625 2.87625 -3.72125 2.7525 -3.0625 2.625 C-2.0415625 2.315625 -2.0415625 2.315625 -1 2 C-0.67 1.34 -0.34 0.68 0 0 Z " fill="#A18D05" transform="translate(19,104)"/>
<path d="M0 0 C3.3 0 6.6 0 10 0 C10 0.99 10 1.98 10 3 C11.98 3 13.96 3 16 3 C16 2.01 16 1.02 16 0 C17.98 0 19.96 0 22 0 C22 0.99 22 1.98 22 3 C21.01 3 20.02 3 19 3 C19 3.99 19 4.98 19 6 C15.7 6 12.4 6 9 6 C9 5.34 9 4.68 9 4 C8.34 4 7.68 4 7 4 C7 4.99 7 5.98 7 7 C4.69 7 2.38 7 0 7 C0 4.69 0 2.38 0 0 Z " fill="#DDD503" transform="translate(73,126)"/>
<path d="M0 0 C0.495 1.485 0.495 1.485 1 3 C0 4 0 4 -2.50390625 4.09765625 C-4.01791016 4.08025391 -4.01791016 4.08025391 -5.5625 4.0625 C-6.57441406 4.05347656 -7.58632812 4.04445313 -8.62890625 4.03515625 C-9.41136719 4.02355469 -10.19382813 4.01195313 -11 4 C-11.33 4.99 -11.66 5.98 -12 7 C-14.31 7 -16.62 7 -19 7 C-19 7.66 -19 8.32 -19 9 C-21.97 9 -24.94 9 -28 9 C-28 10.32 -28 11.64 -28 13 C-28.99 13 -29.98 13 -31 13 C-31 13.99 -31 14.98 -31 16 C-32.98 16 -34.96 16 -37 16 C-37 16.99 -37 17.98 -37 19 C-38.32 19 -39.64 19 -41 19 C-41 20.32 -41 21.64 -41 23 C-42.32 23.33 -43.64 23.66 -45 24 C-45 23.01 -45 22.02 -45 21 C-44.01 21 -43.02 21 -42 21 C-42 20.01 -42 19.02 -42 18 C-41.01 18 -40.02 18 -39 18 C-38.67 16.68 -38.34 15.36 -38 14 C-36.35 14 -34.7 14 -33 14 C-32.67 13.01 -32.34 12.02 -32 11 C-31.34 11 -30.68 11 -30 11 C-30 10.01 -30 9.02 -30 8 C-26.7 8 -23.4 8 -20 8 C-20 7.01 -20 6.02 -20 5 C-17.69 5 -15.38 5 -13 5 C-13 4.01 -13 3.02 -13 2 C-8.71 2 -4.42 2 0 2 C0 1.34 0 0.68 0 0 Z " fill="#8B8B8B" transform="translate(204,85)"/>
<path d="M0 0 C0.99 0 1.98 0 3 0 C3 0.99 3 1.98 3 3 C4.65 2.67 6.3 2.34 8 2 C8.33 3.32 8.66 4.64 9 6 C10.32 6.33 11.64 6.66 13 7 C13 7.66 13 8.32 13 9 C13.66 9 14.32 9 15 9 C15 22.2 15 35.4 15 49 C13.02 49 11.04 49 9 49 C8.67 49.99 8.34 50.98 8 52 C8 50.35 8 48.7 8 47 C9.98 47 11.96 47 14 47 C13.505 29.675 13.505 29.675 13 12 C12.34 11.67 11.68 11.34 11 11 C11 9.68 11 8.36 11 7 C10.01 7 9.02 7 8 7 C8 6.01 8 5.02 8 4 C5.69 4 3.38 4 1 4 C0.67 2.68 0.34 1.36 0 0 Z " fill="#818282" transform="translate(202,33)"/>
<path d="M0 0 C1.98 0 3.96 0 6 0 C6 1.98 6 3.96 6 6 C5.01 6 4.02 6 3 6 C3 10.29 3 14.58 3 19 C2.01 19 1.02 19 0 19 C0 19.99 0 20.98 0 22 C-0.99 21.67 -1.98 21.34 -3 21 C-2.34 21 -1.68 21 -1 21 C-1.33 20.236875 -1.66 19.47375 -2 18.6875 C-3 16 -3 16 -3 13 C-2.01 13 -1.02 13 0 13 C0 11.68 0 10.36 0 9 C0.66 9 1.32 9 2 9 C2 8.01 2 7.02 2 6 C1.34 6 0.68 6 0 6 C0 4.02 0 2.04 0 0 Z " fill="#C0B102" transform="translate(150,85)"/>
<path d="M0 0 C3.96 0 7.92 0 12 0 C12 0.99 12 1.98 12 3 C14.97 3 17.94 3 21 3 C21.33 3.99 21.66 4.98 22 6 C22.99 6.33 23.98 6.66 25 7 C25 7.66 25 8.32 25 9 C23.02 9 21.04 9 19 9 C19 8.01 19 7.02 19 6 C15.7 6 12.4 6 9 6 C9 5.01 9 4.02 9 3 C6.03 3 3.06 3 0 3 C0 2.01 0 1.02 0 0 Z " fill="#021D80" transform="translate(131,18)"/>
<path d="M0 0 C1.98 0 3.96 0 6 0 C6 1.98 6 3.96 6 6 C4.68 6 3.36 6 2 6 C2 6.99 2 7.98 2 9 C1.01 9 0.02 9 -1 9 C-1 9.99 -1 10.98 -1 12 C-2.65 12 -4.3 12 -6 12 C-6 10.35 -6 8.7 -6 7 C-5.34 6.67 -4.68 6.34 -4 6 C-3.67 5.01 -3.34 4.02 -3 3 C-2.01 3 -1.02 3 0 3 C0 2.01 0 1.02 0 0 Z " fill="#050506" transform="translate(150,72)"/>
<path d="M0 0 C1.98 0 3.96 0 6 0 C5.01 0.33 4.02 0.66 3 1 C2.67 2.65 2.34 4.3 2 6 C1.01 6 0.02 6 -1 6 C-1 6.99 -1 7.98 -1 9 C-1.99 9 -2.98 9 -4 9 C-3.67 10.32 -3.34 11.64 -3 13 C-3.99 13.33 -4.98 13.66 -6 14 C-7.20882096 16.00016466 -7.20882096 16.00016466 -8 18 C-7.979375 17.030625 -7.95875 16.06125 -7.9375 15.0625 C-7.64381501 12.12534105 -7.64381501 12.12534105 -9 11 C-9 12.65 -9 14.3 -9 16 C-9.33 16 -9.66 16 -10 16 C-10 14.02 -10 12.04 -10 10 C-9.01 10 -8.02 10 -7 10 C-7 9.01 -7 8.02 -7 7 C-6.01 7 -5.02 7 -4 7 C-4 5.68 -4 4.36 -4 3 C-3.01 3 -2.02 3 -1 3 C-0.67 2.01 -0.34 1.02 0 0 Z " fill="#352F0F" transform="translate(163,97)"/>
<path d="M0 0 C0.33 0 0.66 0 1 0 C1 1.98 1 3.96 1 6 C1.99 6 2.98 6 4 6 C4.66 9.3 5.32 12.6 6 16 C8.31 16 10.62 16 13 16 C13 16.99 13 17.98 13 19 C11.02 19 9.04 19 7 19 C7 20.98 7 22.96 7 25 C6.67 24.01 6.34 23.02 6 22 C5.01 22 4.02 22 3 22 C3 18.04 3 14.08 3 10 C2.01 9.67 1.02 9.34 0 9 C0 6.03 0 3.06 0 0 Z " fill="#D4CA04" transform="translate(9,78)"/>
<path d="M0 0 C2.31 0 4.62 0 7 0 C7 0.99 7 1.98 7 3 C9.97 3 12.94 3 16 3 C16 3.99 16 4.98 16 6 C15.34 6 14.68 6 14 6 C14 6.99 14 7.98 14 9 C16.97 9 19.94 9 23 9 C23 9.33 23 9.66 23 10 C19.37 10 15.74 10 12 10 C11.67 9.34 11.34 8.68 11 8 C8.36 8 5.72 8 3 8 C2.67 7.01 2.34 6.02 2 5 C3.32 4.67 4.64 4.34 6 4 C6 3.01 6 2.02 6 1 C4.02 1 2.04 1 0 1 C0 0.67 0 0.34 0 0 Z " fill="#413F36" transform="translate(25,123)"/>
<path d="M0 0 C2.31 0 4.62 0 7 0 C7 8.91 7 17.82 7 27 C5.02 27 3.04 27 1 27 C1 27.66 1 28.32 1 29 C1.66 29 2.32 29 3 29 C3 30.32 3 31.64 3 33 C1.02 33 -0.96 33 -3 33 C-3.33 33.66 -3.66 34.32 -4 35 C-3.67 33.68 -3.34 32.36 -3 31 C-3.99 30.34 -4.98 29.68 -6 29 C-4.02 29 -2.04 29 0 29 C0 28.01 0 27.02 0 26 C1.98 26 3.96 26 6 26 C6 17.75 6 9.5 6 1 C4.35 1 2.7 1 1 1 C0.67 1.66 0.34 2.32 0 3 C0 2.01 0 1.02 0 0 Z " fill="#4D4719" transform="translate(207,52)"/>
<path d="M0 0 C0.33 0.99 0.66 1.98 1 3 C2.98 3 4.96 3 7 3 C7 3.99 7 4.98 7 6 C9.97 6 12.94 6 16 6 C16 6.33 16 6.66 16 7 C10.75614911 8.7479503 6.52677733 9.19392201 1 9 C1 8.01 1 7.02 1 6 C-1.31 6 -3.62 6 -6 6 C-6 5.34 -6 4.68 -6 4 C-4.02 4 -2.04 4 0 4 C0 2.68 0 1.36 0 0 Z " fill="#EAE302" transform="translate(41,113)"/>
<path d="M0 0 C1.32 0 2.64 0 4 0 C4 1.98 4 3.96 4 6 C5.98 6 7.96 6 10 6 C10 8.31 10 10.62 10 13 C8.68 13 7.36 13 6 13 C6 12.01 6 11.02 6 10 C5.01 10 4.02 10 3 10 C3 9.01 3 8.02 3 7 C2.01 7 1.02 7 0 7 C0 4.69 0 2.38 0 0 Z " fill="#017AB1" transform="translate(92,78)"/>
<path d="M0 0 C0.33 0 0.66 0 1 0 C1 1.98 1 3.96 1 6 C-0.32 6 -1.64 6 -3 6 C-2.34 6.66 -1.68 7.32 -1 8 C-2 11 -2 11 -3 13 C-3.66 13 -4.32 13 -5 13 C-5.33 15.31 -5.66 17.62 -6 20 C-6.33 20 -6.66 20 -7 20 C-7.33 22.97 -7.66 25.94 -8 29 C-8.66 29 -9.32 29 -10 29 C-10 25.37 -10 21.74 -10 18 C-9.34 17.67 -8.68 17.34 -8 17 C-7.34227572 13.97065509 -7.34227572 13.97065509 -7 11 C-6.01 11 -5.02 11 -4 11 C-4 9.02 -4 7.04 -4 5 C-2.68 4.67 -1.36 4.34 0 4 C0 2.68 0 1.36 0 0 Z " fill="#9E9E9F" transform="translate(156,111)"/>
<path d="M0 0 C1.98 0 3.96 0 6 0 C6 0.66 6 1.32 6 2 C6.99 2 7.98 2 9 2 C9 2.99 9 3.98 9 5 C8.01 5.495 8.01 5.495 7 6 C6.67 6.99 6.34 7.98 6 9 C4.02 9 2.04 9 0 9 C0 6.03 0 3.06 0 0 Z " fill="#DFD500" transform="translate(102,117)"/>
<path d="M0 0 C1.9453125 -0.29296875 1.9453125 -0.29296875 4.125 -0.1875 C5.40375 -0.125625 6.6825 -0.06375 8 0 C7.01 0.33 6.02 0.66 5 1 C5 2.32 5 3.64 5 5 C1.7 5 -1.6 5 -5 5 C-5 5.99 -5 6.98 -5 8 C-7.31 8 -9.62 8 -12 8 C-12 6.68 -12 5.36 -12 4 C-10.95199219 3.94392578 -10.95199219 3.94392578 -9.8828125 3.88671875 C-8.97273437 3.82097656 -8.06265625 3.75523438 -7.125 3.6875 C-6.22007812 3.62949219 -5.31515625 3.57148437 -4.3828125 3.51171875 C-1.63778399 3.2117961 -1.63778399 3.2117961 0 0 Z " fill="#010B13" transform="translate(14,57)"/>
<path d="M0 0 C0.99 0 1.98 0 3 0 C3 0.66 3 1.32 3 2 C3.66 2 4.32 2 5 2 C5 1.34 5 0.68 5 0 C6.32 0.33 7.64 0.66 9 1 C8.34 1 7.68 1 7 1 C7 1.66 7 2.32 7 3 C8.32 3 9.64 3 11 3 C11 3.66 11 4.32 11 5 C9.02 5 7.04 5 5 5 C5 6.32 5 7.64 5 9 C4.01 9 3.02 9 2 9 C2 9.99 2 10.98 2 12 C1.01 12 0.02 12 -1 12 C-1 10.02 -1 8.04 -1 6 C-0.01 6 0.98 6 2 6 C2 4.68 2 3.36 2 2 C1.34 2 0.68 2 0 2 C0 1.34 0 0.68 0 0 Z " fill="#B19F04" transform="translate(157,91)"/>
<path d="M0 0 C2.31 0 4.62 0 7 0 C8 3 8 3 7 6 C4.36 6 1.72 6 -1 6 C-1.33 5.34 -1.66 4.68 -2 4 C-2 4.99 -2 5.98 -2 7 C-2.99 7 -3.98 7 -5 7 C-5 8.98 -5 10.96 -5 13 C-5.33 13 -5.66 13 -6 13 C-6 10.69 -6 8.38 -6 6 C-5.01 6 -4.02 6 -3 6 C-3 5.01 -3 4.02 -3 3 C-2.01 3 -1.02 3 0 3 C0 2.01 0 1.02 0 0 Z " fill="#CECC0D" transform="translate(162,65)"/>
<path d="M0 0 C0.99 0 1.98 0 3 0 C3 0.66 3 1.32 3 2 C2.34 2 1.68 2 1 2 C1 2.99 1 3.98 1 5 C-2.88664099 7.61218429 -6.98880926 7.25415198 -11.484375 7.1953125 C-12.29996887 7.1924826 -13.11556274 7.18965271 -13.95587158 7.18673706 C-16.55406528 7.17556558 -19.15191095 7.15046675 -21.75 7.125 C-23.51431793 7.11496627 -25.27864128 7.10584111 -27.04296875 7.09765625 C-31.36211273 7.07563619 -35.68099741 7.04112733 -40 7 C-40 6.67 -40 6.34 -40 6 C-28.12 6 -16.24 6 -4 6 C-4 5.01 -4 4.02 -4 3 C-2.68 3 -1.36 3 0 3 C0 2.01 0 1.02 0 0 Z " fill="#464647" transform="translate(143,138)"/>
<path d="M0 0 C1.98 0 3.96 0 6 0 C6 0.99 6 1.98 6 3 C9.3 3 12.6 3 16 3 C15.67 3.99 15.34 4.98 15 6 C15 5.34 15 4.68 15 4 C12.36 4 9.72 4 7 4 C7 5.65 7 7.3 7 9 C6.67 8.01 6.34 7.02 6 6 C4.02 6 2.04 6 0 6 C0 4.02 0 2.04 0 0 Z " fill="#090D0F" transform="translate(35,91)"/>
<path d="M0 0 C2.475 0.99 2.475 0.99 5 2 C5 3.32 5 4.64 5 6 C6.98 6 8.96 6 11 6 C11 6.99 11 7.98 11 9 C13.64 9 16.28 9 19 9 C19 9.33 19 9.66 19 10 C17.083412 10.02712153 15.1667127 10.04645097 13.25 10.0625 C11.64898438 10.07990234 11.64898438 10.07990234 10.015625 10.09765625 C7.46631499 10.01510087 5.42066409 9.74617558 3 9 C3 7.35 3 5.7 3 4 C2.01 4 1.02 4 0 4 C0 2.68 0 1.36 0 0 Z " fill="#171617" transform="translate(20,118)"/>
<path d="M0 0 C1.32 0 2.64 0 4 0 C4 0.66 4 1.32 4 2 C4.66 2 5.32 2 6 2 C6 3.32 6 4.64 6 6 C5.01 6 4.02 6 3 6 C2.67 8.97 2.34 11.94 2 15 C1.34 15 0.68 15 0 15 C0 10.05 0 5.1 0 0 Z " fill="#A18C02" transform="translate(153,91)"/>
<path d="M0 0 C0.33 0 0.66 0 1 0 C1 9.24 1 18.48 1 28 C3.31 28 5.62 28 8 28 C7.67 29.65 7.34 31.3 7 33 C6.505 31.515 6.505 31.515 6 30 C3.69 30 1.38 30 -1 30 C-0.67 20.1 -0.34 10.2 0 0 Z " fill="#000007" transform="translate(1,76)"/>
<path d="M0 0 C0.33 0 0.66 0 1 0 C1 3.3 1 6.6 1 10 C0.01 10 -0.98 10 -2 10 C-2 10.99 -2 11.98 -2 13 C-3.32 13 -4.64 13 -6 13 C-6.33 13.99 -6.66 14.98 -7 16 C-7 15.01 -7 14.02 -7 13 C-8.98 13 -10.96 13 -13 13 C-12.67 11.68 -12.34 10.36 -12 9 C-10.02 9 -8.04 9 -6 9 C-6 9.99 -6 10.98 -6 12 C-5.01 12 -4.02 12 -3 12 C-3 11.01 -3 10.02 -3 9 C-2.01 9 -1.02 9 0 9 C0 6.03 0 3.06 0 0 Z " fill="#6E5D0A" transform="translate(143,126)"/>
<path d="M0 0 C2.31 0 4.62 0 7 0 C7 2.31 7 4.62 7 7 C4.69 7 2.38 7 0 7 C0 4.69 0 2.38 0 0 Z " fill="#0180B6" transform="translate(127,33)"/>
<path d="M0 0 C0.66 0 1.32 0 2 0 C2 0.99 2 1.98 2 3 C2.99 3 3.98 3 5 3 C5 4.32 5 5.64 5 7 C5.99 7 6.98 7 8 7 C8 7.66 8 8.32 8 9 C3.545 9.495 3.545 9.495 -1 10 C-1.125 3.375 -1.125 3.375 0 0 Z " fill="#988306" transform="translate(23,110)"/>
<path d="M0 0 C1.65 0 3.3 0 5 0 C5.33 1.32 5.66 2.64 6 4 C-3.24 4.33 -12.48 4.66 -22 5 C-22 4.34 -22 3.68 -22 3 C-18.89635771 2.80303551 -15.79207808 2.61906738 -12.6875 2.4375 C-11.36588867 2.35338867 -11.36588867 2.35338867 -10.01757812 2.26757812 C-8.74624023 2.19506836 -8.74624023 2.19506836 -7.44921875 2.12109375 C-6.27879028 2.05039673 -6.27879028 2.05039673 -5.0847168 1.97827148 C-3 2 -3 2 0 3 C0 2.01 0 1.02 0 0 Z " fill="#BCAA01" transform="translate(99,133)"/>
<path d="M0 0 C8.25 0 16.5 0 25 0 C25 0.99 25 1.98 25 3 C26.32 3.33 27.64 3.66 29 4 C25.7 4 22.4 4 19 4 C19 3.01 19 2.02 19 1 C12.73 1 6.46 1 0 1 C0 0.67 0 0.34 0 0 Z " fill="#042570" transform="translate(102,14)"/>
<path d="M0 0 C0.99 0 1.98 0 3 0 C3 1.98 3 3.96 3 6 C1.35 6 -0.3 6 -2 6 C-2 7.32 -2 8.64 -2 10 C-3.32 10 -4.64 10 -6 10 C-6 8.68 -6 7.36 -6 6 C-5.01 6 -4.02 6 -3 6 C-3 4.68 -3 3.36 -3 2 C-2.01 2 -1.02 2 0 2 C0 1.34 0 0.68 0 0 Z " fill="#04205C" transform="translate(133,94)"/>
<path d="M0 0 C2.97 0 5.94 0 9 0 C9 1.65 9 3.3 9 5 C6.03 5 3.06 5 0 5 C0 3.35 0 1.7 0 0 Z " fill="#018EC2" transform="translate(3,66)"/>
<path d="M0 0 C3.96 0 7.92 0 12 0 C12 1.65 12 3.3 12 5 C11.01 5.33 10.02 5.66 9 6 C9 5.01 9 4.02 9 3 C6.03 3 3.06 3 0 3 C0 2.01 0 1.02 0 0 Z " fill="#201E11" transform="translate(39,129)"/>
<path d="M0 0 C0.33 0.66 0.66 1.32 1 2 C2.98 2 4.96 2 7 2 C7 3.98 7 5.96 7 8 C5.02 8 3.04 8 1 8 C1 7.01 1 6.02 1 5 C-0.65 5 -2.3 5 -4 5 C-2.68 4.34 -1.36 3.68 0 3 C0 2.01 0 1.02 0 0 Z " fill="#016AAA" transform="translate(28,82)"/>
<path d="M0 0 C2.97 0 5.94 0 9 0 C9 0.99 9 1.98 9 3 C7.68 3 6.36 3 5 3 C5 3.99 5 4.98 5 6 C3.35 6 1.7 6 0 6 C0 4.02 0 2.04 0 0 Z " fill="#E6DD01" transform="translate(74,126)"/>
<path d="M0 0 C1.98 0 3.96 0 6 0 C6 0.99 6 1.98 6 3 C6.99 3 7.98 3 9 3 C9 3.99 9 4.98 9 6 C8.34 6 7.68 6 7 6 C6.67 6.99 6.34 7.98 6 9 C6 8.01 6 7.02 6 6 C4.68 6 3.36 6 2 6 C2 5.01 2 4.02 2 3 C1.34 3 0.68 3 0 3 C0 2.01 0 1.02 0 0 Z " fill="#B9A704" transform="translate(19,104)"/>
<path d="M0 0 C1.32 0.33 2.64 0.66 4 1 C4 1.99 4 2.98 4 4 C6.31 4 8.62 4 11 4 C11 4.99 11 5.98 11 7 C11.99 7 12.98 7 14 7 C14 8.65 14 10.3 14 12 C13.34 12 12.68 12 12 12 C12 11.01 12 10.02 12 9 C11.01 9 10.02 9 9 9 C9 7.68 9 6.36 9 5 C6.69 5 4.38 5 2 5 C2 4.01 2 3.02 2 2 C1.34 2 0.68 2 0 2 C0 1.34 0 0.68 0 0 Z " fill="#8E8E8F" transform="translate(9,115)"/>
<path d="M0 0 C1.98 0 3.96 0 6 0 C5.01 0.66 4.02 1.32 3 2 C2.67 2.99 2.34 3.98 2 5 C-2.62 5 -7.24 5 -12 5 C-12 4.34 -12 3.68 -12 3 C-8.04 3 -4.08 3 0 3 C0 2.01 0 1.02 0 0 Z " fill="#040406" transform="translate(201,82)"/>
<path d="M0 0 C1.4540625 0.0309375 1.4540625 0.0309375 2.9375 0.0625 C2.9375 1.0525 2.9375 2.0425 2.9375 3.0625 C1.9475 3.3925 0.9575 3.7225 -0.0625 4.0625 C-1.74788601 6.05915314 -1.74788601 6.05915314 -3.0625 8.0625 C-4.3825 7.7325 -5.7025 7.4025 -7.0625 7.0625 C-6.0725 6.7325 -5.0825 6.4025 -4.0625 6.0625 C-4.083125 5.258125 -4.10375 4.45375 -4.125 3.625 C-4.03366838 -0.11959638 -3.80090148 0.07756942 0 0 Z " fill="#0073AF" transform="translate(16.0625,64.9375)"/>
<path d="M0 0 C1.32 0 2.64 0 4 0 C4 1.32 4 2.64 4 4 C4.99 4 5.98 4 7 4 C7 4.99 7 5.98 7 7 C4.69 7 2.38 7 0 7 C0 4.69 0 2.38 0 0 Z " fill="#E3DC01" transform="translate(47,106)"/>
<path d="M0 0 C3.96 0 7.92 0 12 0 C12 0.99 12 1.98 12 3 C14.64 3 17.28 3 20 3 C20 3.33 20 3.66 20 4 C16.7 4.33 13.4 4.66 10 5 C10 4.01 10 3.02 10 2 C6.7 2 3.4 2 0 2 C0 1.34 0 0.68 0 0 Z " fill="#011078" transform="translate(131,18)"/>
<path d="M0 0 C2.97 0 5.94 0 9 0 C9 0.99 9 1.98 9 3 C13.29 3 17.58 3 22 3 C22 3.33 22 3.66 22 4 C17.05 4 12.1 4 7 4 C7 3.34 7 2.68 7 2 C4.36 2 1.72 2 -1 2 C-0.67 1.34 -0.34 0.68 0 0 Z " fill="#050404" transform="translate(51,133)"/>
<path d="M0 0 C0.33 0.99 0.66 1.98 1 3 C2.98 3 4.96 3 7 3 C7 2.01 7 1.02 7 0 C8.98 0 10.96 0 13 0 C13 1.32 13 2.64 13 4 C11.02 4 9.04 4 7 4 C6.67 4.66 6.34 5.32 6 6 C6 5.34 6 4.68 6 4 C4.02 4 2.04 4 0 4 C0 2.68 0 1.36 0 0 Z " fill="#CBBD0A" transform="translate(28,113)"/>
<path d="M0 0 C1.98 0 3.96 0 6 0 C6 1.98 6 3.96 6 6 C4.02 6 2.04 6 0 6 C0 4.02 0 2.04 0 0 Z " fill="#DFD600" transform="translate(64,110)"/>
<path d="M0 0 C2.64 0 5.28 0 8 0 C8.33 1.32 8.66 2.64 9 4 C4.545 4.495 4.545 4.495 0 5 C0 3.35 0 1.7 0 0 Z " fill="#000001" transform="translate(42,95)"/>
<path d="M0 0 C4.29 0 8.58 0 13 0 C13 0.33 13 0.66 13 1 C9.04 1 5.08 1 1 1 C1 1.66 1 2.32 1 3 C1.66 3 2.32 3 3 3 C3 3.99 3 4.98 3 6 C-2.75 6.125 -2.75 6.125 -5 5 C-5.33 5.66 -5.66 6.32 -6 7 C-6 6.01 -6 5.02 -6 4 C-4.02 4 -2.04 4 0 4 C0 2.68 0 1.36 0 0 Z " fill="#322E0F" transform="translate(188,84)"/>
<path d="M0 0 C1.65 0 3.3 0 5 0 C5 1.65 5 3.3 5 5 C0.545 5.495 0.545 5.495 -4 6 C-3.67 5.01 -3.34 4.02 -3 3 C-2.34 3 -1.68 3 -1 3 C-0.67 2.01 -0.34 1.02 0 0 Z " fill="#D9D000" transform="translate(29,101)"/>
<path d="M0 0 C0.66 0 1.32 0 2 0 C2.33 2.31 2.66 4.62 3 7 C2.34 7 1.68 7 1 7 C1 10.3 1 13.6 1 17 C0.01 17 -0.98 17 -2 17 C-2.33 17.99 -2.66 18.98 -3 20 C-3 18.68 -3 17.36 -3 16 C-2.01 16 -1.02 16 0 16 C0 10.72 0 5.44 0 0 Z " fill="#006BAA" transform="translate(98,10)"/>
<path d="M0 0 C4.455 0.99 4.455 0.99 9 2 C9 2.33 9 2.66 9 3 C7.02 3 5.04 3 3 3 C3 3.99 3 4.98 3 6 C1.35 6 -0.3 6 -2 6 C-2.33 6.99 -2.66 7.98 -3 9 C-3 7.02 -3 5.04 -3 3 C-2.01 3 -1.02 3 0 3 C0 2.01 0 1.02 0 0 Z " fill="#F7F307" transform="translate(160,69)"/>
<path d="M0 0 C1.32 0 2.64 0 4 0 C3.67 1.98 3.34 3.96 3 6 C1.02 6 -0.96 6 -3 6 C-3 4.68 -3 3.36 -3 2 C-2.01 2 -1.02 2 0 2 C0 1.34 0 0.68 0 0 Z " fill="#8F7905" transform="translate(143,117)"/>
<path d="M0 0 C2.64 0 5.28 0 8 0 C8 0.66 8 1.32 8 2 C7.01 2 6.02 2 5 2 C5 2.99 5 3.98 5 5 C3.35 5 1.7 5 0 5 C-0.33 4.34 -0.66 3.68 -1 3 C-0.67 2.01 -0.34 1.02 0 0 Z " fill="#0072B0" transform="translate(20,60)"/>
<path d="M0 0 C1.98 0 3.96 0 6 0 C6 2.31 6 4.62 6 7 C5.34 7 4.68 7 4 7 C3.67 6.34 3.34 5.68 3 5 C2.01 4.67 1.02 4.34 0 4 C0 2.68 0 1.36 0 0 Z " fill="#C1B202" transform="translate(201,68)"/>
<path d="M0 0 C0.99 0 1.98 0 3 0 C3 0.66 3 1.32 3 2 C2.34 2 1.68 2 1 2 C1 3.98 1 5.96 1 8 C0.01 8.495 0.01 8.495 -1 9 C-1.65555119 11.52733235 -1.65555119 11.52733235 -2 14 C-2.66 14 -3.32 14 -4 14 C-4 11.69 -4 9.38 -4 7 C-2.68 7 -1.36 7 0 7 C-0.2784375 5.824375 -0.2784375 5.824375 -0.5625 4.625 C-1 2 -1 2 0 0 Z " fill="#848484" transform="translate(89,10)"/>
<path d="M0 0 C0.33 0 0.66 0 1 0 C1 2.97 1 5.94 1 9 C0.34 9 -0.32 9 -1 9 C-1 9.99 -1 10.98 -1 12 C-2.98 12.33 -4.96 12.66 -7 13 C-7 12.01 -7 11.02 -7 10 C-5.68 10 -4.36 10 -3 10 C-3 9.01 -3 8.02 -3 7 C-2.01 7 -1.02 7 0 7 C0 4.69 0 2.38 0 0 Z " fill="#0E0D09" transform="translate(144,129)"/>
<path d="M0 0 C1.98 0 3.96 0 6 0 C6 1.65 6 3.3 6 5 C4.02 5 2.04 5 0 5 C0 3.35 0 1.7 0 0 Z " fill="#9F8B02" transform="translate(131,130)"/>
<path d="M0 0 C3.6875 -0.3125 3.6875 -0.3125 7 0 C6.67 1.32 6.34 2.64 6 4 C1.545 4.495 1.545 4.495 -3 5 C-1.9375 2.5 -1.9375 2.5 0 0 Z " fill="#A99601" transform="translate(189,78)"/>
<path d="M0 0 C0.66 0.33 1.32 0.66 2 1 C1.625 3.9375 1.625 3.9375 1 7 C0.01 7.495 0.01 7.495 -1 8 C-1.65555119 10.52733235 -1.65555119 10.52733235 -2 13 C-2.66 13 -3.32 13 -4 13 C-4 10.36 -4 7.72 -4 5 C-2.68 5 -1.36 5 0 5 C0 3.35 0 1.7 0 0 Z " fill="#090803" transform="translate(154,108)"/>
<path d="M0 0 C0.66 0 1.32 0 2 0 C2.33 1.65 2.66 3.3 3 5 C2.01 5.33 1.02 5.66 0 6 C-1.20882096 8.00016466 -1.20882096 8.00016466 -2 10 C-1.979375 9.030625 -1.95875 8.06125 -1.9375 7.0625 C-1.64381501 4.12534105 -1.64381501 4.12534105 -3 3 C-3 4.65 -3 6.3 -3 8 C-3.33 8 -3.66 8 -4 8 C-4 6.02 -4 4.04 -4 2 C-2.68 2 -1.36 2 0 2 C0 1.34 0 0.68 0 0 Z " fill="#2E2D29" transform="translate(157,105)"/>
<path d="M0 0 C0.103125 0.639375 0.20625 1.27875 0.3125 1.9375 C0.539375 2.618125 0.76625 3.29875 1 4 C1.99 4.33 2.98 4.66 4 5 C3.01 5 2.02 5 1 5 C1 5.99 1 6.98 1 8 C0.01 8 -0.98 8 -2 8 C-2 9.98 -2 11.96 -2 14 C-2.33 14 -2.66 14 -3 14 C-3 12.02 -3 10.04 -3 8 C-3.66 8 -4.32 8 -5 8 C-5 7.01 -5 6.02 -5 5 C-4.01 5 -3.02 5 -2 5 C-2 5.66 -2 6.32 -2 7 C-1.34 7 -0.68 7 0 7 C0 4.69 0 2.38 0 0 Z " fill="#8D7B0B" transform="translate(155,99)"/>
<path d="M0 0 C2.31 0 4.62 0 7 0 C7 1.32 7 2.64 7 4 C4.69 4 2.38 4 0 4 C0 2.68 0 1.36 0 0 Z " fill="#0179B1" transform="translate(127,52)"/>
<path d="M0 0 C0.66 0 1.32 0 2 0 C2 1.32 2 2.64 2 4 C-1.96 4 -5.92 4 -10 4 C-10 3.34 -10 2.68 -10 2 C-6.7 2 -3.4 2 0 2 C0 1.34 0 0.68 0 0 Z " fill="#000007" transform="translate(189,54)"/>
<path d="M0 0 C0.66 0 1.32 0 2 0 C2.33 0.66 2.66 1.32 3 2 C5.64 2 8.28 2 11 2 C11.33 2.99 11.66 3.98 12 5 C8.04 4.67 4.08 4.34 0 4 C0 2.68 0 1.36 0 0 Z " fill="#9C9C9C" transform="translate(171,17)"/>
<path d="M0 0 C0.33 0 0.66 0 1 0 C1 2.31 1 4.62 1 7 C1.99 7 2.98 7 4 7 C4 7.66 4 8.32 4 9 C-0.95 9 -5.9 9 -11 9 C-11 8.67 -11 8.34 -11 8 C-7.7 7.67 -4.4 7.34 -1 7 C-0.67 4.69 -0.34 2.38 0 0 Z " fill="#BCAC0A" transform="translate(72,126)"/>
<path d="M0 0 C1.32 0 2.64 0 4 0 C4 1.98 4 3.96 4 6 C2.68 6.33 1.36 6.66 0 7 C0 4.69 0 2.38 0 0 Z " fill="#E4DD01" transform="translate(89,113)"/>
<path d="M0 0 C0.99 0 1.98 0 3 0 C3 0.66 3 1.32 3 2 C3.66 2 4.32 2 5 2 C5 1.34 5 0.68 5 0 C6.32 0.33 7.64 0.66 9 1 C8.34 1 7.68 1 7 1 C7 1.66 7 2.32 7 3 C8.32 3 9.64 3 11 3 C11 3.66 11 4.32 11 5 C6.37390802 5.3227506 3.71973879 4.84450614 0 2 C0 1.34 0 0.68 0 0 Z " fill="#C4B603" transform="translate(157,91)"/>
<path d="M0 0 C1.98 0 3.96 0 6 0 C6.07347656 0.95712891 6.07347656 0.95712891 6.1484375 1.93359375 C6.22320313 2.75988281 6.29796875 3.58617188 6.375 4.4375 C6.44460937 5.26121094 6.51421875 6.08492188 6.5859375 6.93359375 C6.72257813 7.61550781 6.85921875 8.29742187 7 9 C7.66 9.33 8.32 9.66 9 10 C9 10.99 9 11.98 9 13 C7.68 12.67 6.36 12.34 5 12 C5 8.37 5 4.74 5 1 C3.35 1 1.7 1 0 1 C0 0.67 0 0.34 0 0 Z " fill="#B19E09" transform="translate(3,78)"/>
<path d="M0 0 C0.99 0 1.98 0 3 0 C3 2.31 3 4.62 3 7 C1.68 7 0.36 7 -1 7 C-1.04254356 5.00045254 -1.04080783 2.99958364 -1 1 C-0.67 0.67 -0.34 0.34 0 0 Z " fill="#0067A7" transform="translate(147,55)"/>
<path d="M0 0 C0.99 0 1.98 0 3 0 C3.33 3.3 3.66 6.6 4 10 C3.67 9.01 3.34 8.02 3 7 C2.01 7 1.02 7 0 7 C0 4.69 0 2.38 0 0 Z " fill="#C2B505" transform="translate(137,119)"/>
<path d="M0 0 C0.66 0 1.32 0 2 0 C1.67 1.65 1.34 3.3 1 5 C0.34 5 -0.32 5 -1 5 C-1.33 5.99 -1.66 6.98 -2 8 C-3.32 7.67 -4.64 7.34 -6 7 C-5.34 7 -4.68 7 -4 7 C-4 5.68 -4 4.36 -4 3 C-2.68 3 -1.36 3 0 3 C0 2.01 0 1.02 0 0 Z " fill="#7F7F7F" transform="translate(82,23)"/>
<path d="M0 0 C3.63 0.33 7.26 0.66 11 1 C10.67 2.32 10.34 3.64 10 5 C9.67 4.34 9.34 3.68 9 3 C6.36 3 3.72 3 1 3 C0.67 2.01 0.34 1.02 0 0 Z " fill="#D9D8D7" transform="translate(27,128)"/>
<path d="M0 0 C1.98 0 3.96 0 6 0 C6 1.32 6 2.64 6 4 C4.02 4 2.04 4 0 4 C0 2.68 0 1.36 0 0 Z " fill="#C6B902" transform="translate(112,129)"/>
<path d="M0 0 C0.33 0 0.66 0 1 0 C1 1.98 1 3.96 1 6 C1.99 6 2.98 6 4 6 C4 8.31 4 10.62 4 13 C3.67 12.01 3.34 11.02 3 10 C2.01 9.67 1.02 9.34 0 9 C0 6.03 0 3.06 0 0 Z " fill="#E5DD07" transform="translate(9,78)"/>
<path d="M0 0 C2.64 0 5.28 0 8 0 C6.375 2 6.375 2 4 4 C0.75 4.25 0.75 4.25 -2 4 C-1.34 2.68 -0.68 1.36 0 0 Z " fill="#000001" transform="translate(14,57)"/>
<path d="M0 0 C5.841744 -0.35050464 9.8531808 -0.16727335 15 3 C15 3.33 15 3.66 15 4 C13.02 4 11.04 4 9 4 C8.67 3.01 8.34 2.02 8 1 C5.36 1 2.72 1 0 1 C0 0.67 0 0.34 0 0 Z " fill="#3D3D3D" transform="translate(172,21)"/>
<path d="M0 0 C0.33 0.99 0.66 1.98 1 3 C0.34 3 -0.32 3 -1 3 C-1 3.99 -1 4.98 -1 6 C-2.65 5.67 -4.3 5.34 -6 5 C-6.33 5.66 -6.66 6.32 -7 7 C-7 6.01 -7 5.02 -7 4 C-5.68 4 -4.36 4 -3 4 C-3 3.01 -3 2.02 -3 1 C-2.01 0.67 -1.02 0.34 0 0 Z " fill="#13110D" transform="translate(163,100)"/>
<path d="M0 0 C2.31 0 4.62 0 7 0 C7 0.99 7 1.98 7 3 C4.69 3 2.38 3 0 3 C0 2.01 0 1.02 0 0 Z " fill="#E2D902" transform="translate(194,62)"/>
<path d="M0 0 C2.31 0 4.62 0 7 0 C7 0.99 7 1.98 7 3 C4.69 3 2.38 3 0 3 C0 2.01 0 1.02 0 0 Z " fill="#027FB6" transform="translate(95,59)"/>
<path d="M0 0 C0.99 0 1.98 0 3 0 C3 0.66 3 1.32 3 2 C2.34 2 1.68 2 1 2 C1 2.99 1 3.98 1 5 C-0.65 5.66 -2.3 6.32 -4 7 C-4 5.68 -4 4.36 -4 3 C-2.68 3 -1.36 3 0 3 C0 2.01 0 1.02 0 0 Z " fill="#747475" transform="translate(143,138)"/>
<path d="M0 0 C-0.33 1.65 -0.66 3.3 -1 5 C-1.33 4.01 -1.66 3.02 -2 2 C-4.31 2 -6.62 2 -9 2 C-5.5647952 -0.29013653 -4.014669 -0.17842973 0 0 Z " fill="#12110E" transform="translate(9,104)"/>
<path d="M0 0 C2.31 0 4.62 0 7 0 C7 0.99 7 1.98 7 3 C5.02 3 3.04 3 1 3 C0.67 2.01 0.34 1.02 0 0 Z " fill="#181C12" transform="translate(2,72)"/>
<path d="M0 0 C1.4540625 0.0309375 1.4540625 0.0309375 2.9375 0.0625 C2.9375 0.3925 2.9375 0.7225 2.9375 1.0625 C1.2875 1.0625 -0.3625 1.0625 -2.0625 1.0625 C-2.0625 2.0525 -2.0625 3.0425 -2.0625 4.0625 C-3.3825 4.0625 -4.7025 4.0625 -6.0625 4.0625 C-6.0625 3.4025 -6.0625 2.7425 -6.0625 2.0625 C-7.0525 1.7325 -8.0425 1.4025 -9.0625 1.0625 C-7.8559375 1.0934375 -7.8559375 1.0934375 -6.625 1.125 C-3.4084517 1.0465476 -3.39792468 0.0693454 0 0 Z " fill="#112C44" transform="translate(76.0625,35.9375)"/>
<path d="M0 0 C2.31 0 4.62 0 7 0 C7 0.99 7 1.98 7 3 C5.02 3 3.04 3 1 3 C0.67 2.01 0.34 1.02 0 0 Z " fill="#F0EA01" transform="translate(111,111)"/>
<path d="M0 0 C0.99 0 1.98 0 3 0 C3 4.29 3 8.58 3 13 C2.67 13 2.34 13 2 13 C1.92652344 11.95199219 1.92652344 11.95199219 1.8515625 10.8828125 C1.73941406 9.51769531 1.73941406 9.51769531 1.625 8.125 C1.55539063 7.22007813 1.48578125 6.31515625 1.4140625 5.3828125 C1.20431868 2.82058097 1.20431868 2.82058097 -1 1 C-0.67 0.67 -0.34 0.34 0 0 Z " fill="#4D4D4E" transform="translate(214,42)"/>
<path d="M0 0 C2.64 0 5.28 0 8 0 C8 0.66 8 1.32 8 2 C5.36 2.66 2.72 3.32 0 4 C0 2.68 0 1.36 0 0 Z " fill="#060707" transform="translate(71,34)"/>
<path d="M0 0 C1.98 0 3.96 0 6 0 C6 0.99 6 1.98 6 3 C4.02 3 2.04 3 0 3 C0 2.01 0 1.02 0 0 Z " fill="#E1D801" transform="translate(99,129)"/>
<path d="M0 0 C0.33 0.66 0.66 1.32 1 2 C2.32 2 3.64 2 5 2 C5 3.65 5 5.3 5 7 C4.34 7 3.68 7 3 7 C3 6.01 3 5.02 3 4 C2.01 4 1.02 4 0 4 C0 2.68 0 1.36 0 0 Z " fill="#A9A9A9" transform="translate(18,120)"/>
<path d="M0 0 C1.98 0 3.96 0 6 0 C6 0.99 6 1.98 6 3 C4.02 3 2.04 3 0 3 C0 2.01 0 1.02 0 0 Z " fill="#DCD201" transform="translate(67,123)"/>
<path d="M0 0 C1.98 0 3.96 0 6 0 C6 0.99 6 1.98 6 3 C4.02 3 2.04 3 0 3 C0 2.01 0 1.02 0 0 Z " fill="#C2B402" transform="translate(35,113)"/>
<path d="M0 0 C1.98 0 3.96 0 6 0 C6 0.99 6 1.98 6 3 C4.02 3 2.04 3 0 3 C0 2.01 0 1.02 0 0 Z " fill="#CFC20D" transform="translate(16,113)"/>
<path d="M0 0 C1.98 0 3.96 0 6 0 C6 0.99 6 1.98 6 3 C4.02 3 2.04 3 0 3 C0 2.01 0 1.02 0 0 Z " fill="#02126E" transform="translate(121,104)"/>
<path d="M0 0 C2.475 0.495 2.475 0.495 5 1 C5 1.99 5 2.98 5 4 C4.34 4 3.68 4 3 4 C2.67 4.99 2.34 5.98 2 7 C2 5.68 2 4.36 2 3 C1.34 3 0.68 3 0 3 C0 2.01 0 1.02 0 0 Z " fill="#C2B403" transform="translate(23,106)"/>
<path d="M0 0 C1.98 0 3.96 0 6 0 C6 0.99 6 1.98 6 3 C4.02 3 2.04 3 0 3 C0 2.01 0 1.02 0 0 Z " fill="#0186BB" transform="translate(83,88)"/>
<path d="M0 0 C0.99 0 1.98 0 3 0 C3 1.98 3 3.96 3 6 C2.01 6 1.02 6 0 6 C0 4.02 0 2.04 0 0 Z " fill="#0285B9" transform="translate(41,69)"/>
<path d="M0 0 C1.98 0 3.96 0 6 0 C6 0.99 6 1.98 6 3 C4.02 3 2.04 3 0 3 C0 2.01 0 1.02 0 0 Z " fill="#0187BB" transform="translate(54,62)"/>
<path d="M0 0 C1.98 0 3.96 0 6 0 C6 0.99 6 1.98 6 3 C4.02 3 2.04 3 0 3 C0 2.01 0 1.02 0 0 Z " fill="#15150F" transform="translate(169,59)"/>
</svg>
