<svg xmlns="http://www.w3.org/2000/svg" viewBox="0 0 16 16" shape-rendering="crispEdges">
  <!-- Black outline -->
  <path d="M2.5,2h11v1h1v11h-1v1h-11v-1h-1v-11h1z" fill="#000000" />
  
  <!-- Yellow body -->
  <path d="M3,3h10v10h-10z" fill="#fce83a" />

  <!-- Pores (Darker Yellow) -->
  <rect x="4" y="4" width="2" height="2" fill="#c9b922"/>
  <rect x="11" y="5" width="1" height="1" fill="#c9b922"/>
  <rect x="3" y="10" width="1" height="2" fill="#c9b922"/>
  <rect x="10" y="10" width="2" height="2" fill="#c9b922"/>

  <!-- Eyes (White) -->
  <rect x="6" y="5" width="2" height="3" fill="#ffffff" />
  <rect x="9" y="5" width="2" height="3" fill="#ffffff" />
  
  <!-- Pupils (Black) -->
  <rect x="7" y="6" width="1" height="1" fill="#000000" />
  <rect x="9" y="6" width="1" height="1" fill="#000000" />

  <!-- Mouth/Smile (Black) -->
  <rect x="5" y="9" width="1" height="1" fill="#000000" />
  <rect x="11" y="9" width="1" height="1" fill="#000000" />
  <rect x="6" y="10" width="1" height="1" fill="#000000" />
  <rect x="10" y="10" width="1" height="1" fill="#000000" />
  <rect x="7" y="11" width="3" height="1" fill="#000000" />
  
  <!-- Buck Teeth (White) -->
  <rect x="7" y="11" width="1" height="1" fill="#ffffff" />
  <rect x="9" y="11" width="1" height="1" fill="#ffffff" />

  <!-- Highlights (Lighter Yellow) -->
  <rect x="3" y="3" width="10" height="1" fill="#fff58a"/>
  <rect x="3" y="4" width="1" height="9" fill="#fff58a"/>
</svg>
