<svg xmlns="http://www.w3.org/2000/svg" viewBox="0 0 32 24" shape-rendering="crispEdges">
  <!-- 
    Simplified pixel art recreation of an angled blue/yellow kitchen sponge.
    The blue scrub pad is on top, yellow sponge body is underneath.
  -->

  <!-- Black Outline Shadow / Base -->
  <path d="M14,4 h4 v1 h2 v1 h2 v1 h2 v1 h2 v1 h2 v4 h-1 v1 h-1 v1 h-1 v1 h-1 v1 h-1 v1 h-2 v1 h-3 v1 h-6 v1 h-4 v-1 h-3 v-1 h-2 v-1 h-2 v-1 h-1 v-1 h-1 v-4 h4 v-1 h2 v-1 h1 v-1 h2 v-1 h2 v-1 z" fill="#000000" />

  <!-- Yellow Sponge Body -->
  <path d="M4,13 h4 v-1 h2 v-1 h1 v-1 h2 v1 h2 v1 h3 v-1 h3 v-1 h3 v-1 h2 v2 h-1 v1 h-1 v1 h-1 v1 h-1 v1 h-1 v1 h-2 v1 h-3 v1 h-6 v-1 h-2 v-1 h-2 v-1 h-1 v-1 h-1 v-1 h-1 z" fill="#fae125" />
  
  <!-- Yellow Sponge Shadow -->
  <path d="M4,15 h2 v1 h2 v1 h1 v1 h1 v1 h2 v1 h6 v-1 h3 v-1 h2 v-1 h1 v-1 h1 v-1 h1 v-1 h1 v-1 h1 v2 h-1 v1 h-1 v1 h-1 v1 h-1 v1 h-1 v1 h-2 v1 h-3 v1 h-6 v-1 h-2 v-1 h-2 v-1 h-1 v-1 h-1 v-1 h-1 z" fill="#d1b815" />

  <!-- Sponge Pores (Darker Yellow) -->
  <rect x="6" y="16" width="1" height="1" fill="#b09b0b" />
  <rect x="9" y="18" width="2" height="1" fill="#b09b0b" />
  <rect x="15" y="19" width="1" height="1" fill="#b09b0b" />
  <rect x="19" y="17" width="2" height="1" fill="#b09b0b" />
  <rect x="23" y="15" width="1" height="1" fill="#b09b0b" />
  <rect x="25" y="13" width="1" height="1" fill="#b09b0b" />
  <rect x="4" y="14" width="1" height="1" fill="#b09b0b" />
  
  <rect x="8" y="15" width="1" height="1" fill="#b09b0b" />
  <rect x="12" y="16" width="1" height="1" fill="#b09b0b" />
  <rect x="18" y="15" width="1" height="1" fill="#b09b0b" />
  <rect x="21" y="12" width="1" height="1" fill="#b09b0b" />

  <!-- Blue Scrub Pad (Top) -->
  <path d="M14,5 h4 v1 h2 v1 h2 v1 h2 v1 h2 v1 h2 v1 h-2 v1 h-3 v1 h-3 v1 h-3 pos-1 v-1 h-2 v-1 h-2 v-1 h-1 v1 h-2 v1 h-4 v-1 h-2 v-1 h-1 v-1 h-2 v-1 h4 v-1 h2 v-1 h1 v-1 h2 v-1 z" fill="#0b5b9c" />

  <!-- Blue Scrub Pad Darker Areas -->
  <path d="M14,5 h1 v1 h-1 z M16,6 h1 v1 h-1 z M18,7 h1 v1 h-1 z M20,8 h1 v1 h-1 z M22,9 h1 v1 h-1 z M24,10 h1 v1 h-1 z M15,11 h1 v1 h-1 z M12,12 h1 v1 h-1 z M9,11 h1 v1 h-1 z M6,10 h1 v1 h-1 z" fill="#063e6e" />
  <path d="M21,11 h3 v1 h-3 z M16,13 h3 v1 h-3 z M18,12 h1 v1 h-1 z M10,14 h2 v1 h-2 z" fill="#063e6e" />
  
  <!-- Blue Scrub Pad Edge Highlight -->
  <path d="M16,7 h2 v1 h2 v1 h2 v1 h2 v1 h1 v1" fill="none" stroke="#2a8eea" stroke-width="1" />
  <path d="M7,12 h3 v1 h1 v1 h2" fill="none" stroke="#2a8eea" stroke-width="1" />
  <rect x="18" y="9" width="1" height="1" fill="#2a8eea" />
  <rect x="13" y="10" width="1" height="1" fill="#2a8eea" />
  <rect x="14" y="12" width="1" height="1" fill="#2a8eea" />

</svg>
